<svg width="50" height="50" viewBox="0 0 50 50" fill="none" xmlns="http://www.w3.org/2000/svg">
<path d="M4.82031 32.7617C4.80151 32.7377 4.78297 32.7136 4.76562 32.6885C4.78297 32.7136 4.8015 32.7377 4.82031 32.7617ZM4.82031 32.7617C4.82879 32.7725 4.83596 32.7844 4.84473 32.7949C4.83596 32.7844 4.82879 32.7725 4.82031 32.7617ZM5.70117 33.3066C5.79781 33.3262 5.8976 33.3379 6 33.3379H19.0713V31.5938C19.0713 31.3177 19.2953 31.0939 19.5713 31.0938H22.4287C22.7049 31.0938 22.9287 31.3176 22.9287 31.5938V33.3379H36C36.1031 33.3379 36.2036 33.3264 36.3008 33.3066C36.2959 33.3076 36.291 33.3096 36.2861 33.3105L35.8809 33.3887V33.5273H22.9287V34.458C22.9287 34.7342 22.7049 34.958 22.4287 34.958H19.5713C19.2953 34.9578 19.0713 34.734 19.0713 34.458V33.5273H6.11914V33.3887L5.71387 33.3105C5.70958 33.3097 5.70545 33.3075 5.70117 33.3066ZM36.4219 33.2764C36.3892 33.2859 36.3559 33.2934 36.3223 33.3008C36.3559 33.2934 36.3892 33.2859 36.4219 33.2764ZM5.50879 33.2539C5.48603 33.246 5.46365 33.2375 5.44141 33.2285C5.46365 33.2375 5.48603 33.246 5.50879 33.2539ZM36.5576 33.2285C36.5389 33.236 36.5201 33.2432 36.501 33.25C36.5201 33.2432 36.5389 33.236 36.5576 33.2285ZM5.38672 33.2051C5.35753 33.192 5.32894 33.178 5.30078 33.1631C5.32894 33.178 5.35753 33.192 5.38672 33.2051ZM36.6982 33.1631C36.6701 33.178 36.6415 33.192 36.6123 33.2051C36.6415 33.192 36.6701 33.178 36.6982 33.1631ZM5.27148 33.1475C5.24116 33.1306 5.2116 33.1127 5.18262 33.0938C5.2116 33.1126 5.24116 33.1306 5.27148 33.1475ZM36.8164 33.0938C36.7874 33.1126 36.7579 33.1306 36.7275 33.1475C36.7579 33.1306 36.7874 33.1126 36.8164 33.0938ZM5.14648 33.0703C5.11932 33.0515 5.09321 33.0313 5.06738 33.0107C5.09321 33.0313 5.11931 33.0515 5.14648 33.0703ZM36.9316 33.0107C36.9058 33.0313 36.8797 33.0515 36.8525 33.0703C36.8797 33.0515 36.9058 33.0313 36.9316 33.0107ZM5.04004 32.9902C5.01028 32.9654 4.98184 32.9391 4.9541 32.9121C4.98184 32.9391 5.01028 32.9654 5.04004 32.9902ZM37.0449 32.9121C37.0172 32.9391 36.9888 32.9654 36.959 32.9902C36.9888 32.9654 37.0172 32.9391 37.0449 32.9121ZM37.1543 32.7939C37.1251 32.8291 37.0947 32.8631 37.0625 32.8955C37.0947 32.8632 37.1251 32.8291 37.1543 32.7939ZM4.71484 32.6094C4.7092 32.6 4.70368 32.5906 4.69824 32.5811C4.70369 32.5906 4.7092 32.6 4.71484 32.6094ZM37.3008 32.5811C37.2954 32.5904 37.2907 32.6001 37.2852 32.6094C37.2907 32.6001 37.2954 32.5904 37.3008 32.5811ZM4.6543 32.4971C4.64634 32.4809 4.63824 32.4648 4.63086 32.4482C4.63824 32.4648 4.64634 32.4809 4.6543 32.4971ZM37.3682 32.4482C37.3608 32.4646 37.3536 32.481 37.3457 32.4971C37.3536 32.481 37.3608 32.4646 37.3682 32.4482ZM4.60645 32.3887C4.5946 32.3588 4.58318 32.3287 4.57324 32.2979C4.58318 32.3287 4.5946 32.3588 4.60645 32.3887ZM37.4268 32.2979C37.4168 32.3288 37.4045 32.3587 37.3926 32.3887C37.4045 32.3587 37.4168 32.3288 37.4268 32.2979ZM4.56055 32.2598C4.55245 32.2321 4.54559 32.2041 4.53906 32.1758C4.54558 32.2041 4.55245 32.2321 4.56055 32.2598ZM37.46 32.1758C37.4534 32.2041 37.4466 32.2321 37.4385 32.2598C37.4466 32.2321 37.4534 32.2041 37.46 32.1758ZM4.52734 32.124C4.52063 32.0893 4.516 32.0541 4.51172 32.0186C4.516 32.0541 4.52063 32.0893 4.52734 32.124ZM37.4883 32.0186C37.484 32.0541 37.4784 32.0893 37.4717 32.124C37.4784 32.0893 37.484 32.0541 37.4883 32.0186ZM37.5 31.8379C37.5 31.8873 37.4969 31.9362 37.4922 31.9844C37.4969 31.9362 37.5 31.8873 37.5 31.8379ZM15.0244 21.3643V21.1758H26.9766V21.3643H15.0244ZM5.69531 33.3057C5.65194 33.2967 5.6093 33.286 5.56738 33.2734C5.60929 33.286 5.65195 33.2967 5.69531 33.3057ZM37.2344 32.6885C37.217 32.7136 37.1985 32.7377 37.1797 32.7617C37.1985 32.7377 37.217 32.7136 37.2344 32.6885Z" fill="#062150" stroke="#062150"/>
<path d="M39 8L39.8309 12.1691L44 13L39.8309 13.8309L39 18L38.1691 13.8309L34 13L38.1691 12.1691L39 8Z" fill="#FF6000"/>
</svg>
