<svg width="24" height="24" viewBox="0 0 24 24" fill="none" xmlns="http://www.w3.org/2000/svg">
<path d="M20.6667 0C21.3518 0 22.0089 0.272172 22.4934 0.756641C22.9778 1.24111 23.25 1.89819 23.25 2.58333V20.6667C23.25 21.3518 22.9778 22.0089 22.4934 22.4934C22.0089 22.9778 21.3518 23.25 20.6667 23.25H2.58333C1.89819 23.25 1.24111 22.9778 0.756641 22.4934C0.272172 22.0089 0 21.3518 0 20.6667V2.58333C0 1.89819 0.272172 1.24111 0.756641 0.756641C1.24111 0.272172 1.89819 0 2.58333 0H20.6667ZM20.0208 20.0208V13.175C20.0208 12.0582 19.5772 10.9872 18.7875 10.1975C17.9978 9.40781 16.9268 8.96417 15.81 8.96417C14.7121 8.96417 13.4333 9.63583 12.8133 10.6433V9.20958H9.20958V20.0208H12.8133V13.6529C12.8133 12.6583 13.6142 11.8446 14.6088 11.8446C15.0884 11.8446 15.5483 12.0351 15.8874 12.3742C16.2266 12.7134 16.4171 13.1733 16.4171 13.6529V20.0208H20.0208ZM5.01167 7.18167C5.58719 7.18167 6.13913 6.95304 6.54609 6.54609C6.95304 6.13913 7.18167 5.58719 7.18167 5.01167C7.18167 3.81042 6.21292 2.82875 5.01167 2.82875C4.43272 2.82875 3.87749 3.05873 3.46811 3.46811C3.05873 3.87749 2.82875 4.43272 2.82875 5.01167C2.82875 6.21292 3.81042 7.18167 5.01167 7.18167ZM6.80708 20.0208V9.20958H3.22917V20.0208H6.80708Z" fill="white"/>
</svg>
