<svg width="50" height="50" viewBox="0 0 50 50" fill="none" xmlns="http://www.w3.org/2000/svg">
<path d="M33.4054 15.682L21.0461 28.0413C20.2697 28.8176 21.1152 29.663 21.8916 28.8867L34.2509 16.5274C34.29 16.4883 34.3432 16.4662 34.3986 16.4662H38.1069C38.1623 16.4662 38.2155 16.4442 38.2546 16.4051L43.2325 11.4271C43.3691 11.2905 43.263 11.0576 43.0703 11.071L38.7866 11.3692C38.66 11.378 38.5549 11.2728 38.5637 11.1463L38.8618 6.86249C38.8752 6.66977 38.6423 6.56368 38.5057 6.70028L33.5278 11.6782C33.4886 11.7174 33.4666 11.7705 33.4666 11.8259V15.5343C33.4666 15.5897 33.4446 15.6428 33.4054 15.682Z" fill="#FF6000"/>
<path d="M25.1326 26.9902C25.3339 26.8918 25.5784 26.9748 25.6606 27.1832C26.0575 28.1883 26.1304 29.2963 25.8631 30.3504C25.5625 31.536 24.851 32.5765 23.8553 33.2868C22.8596 33.997 21.6441 34.3311 20.4253 34.2294C19.2064 34.1277 18.0631 33.5968 17.1989 32.7314C16.3346 31.8659 15.8054 30.7219 15.7054 29.5029C15.6054 28.2838 15.9411 27.0689 16.6528 26.0742C17.3645 25.0794 18.406 24.3694 19.592 24.0705C20.6465 23.8047 21.7544 23.8791 22.759 24.2774C22.9672 24.36 23.0498 24.6046 22.9512 24.8057C22.8526 25.0068 22.6101 25.088 22.4007 25.0085C21.5696 24.693 20.6585 24.6382 19.7903 24.8571C18.7905 25.1091 17.9125 25.7076 17.3126 26.5462C16.7126 27.3847 16.4296 28.4089 16.5139 29.4365C16.5982 30.4642 17.0443 31.4286 17.7729 32.1582C18.5014 32.8878 19.4652 33.3352 20.4927 33.421C21.5202 33.5067 22.5448 33.2251 23.3842 32.6264C24.2236 32.0276 24.8234 31.1505 25.0768 30.151C25.2969 29.2831 25.2434 28.3719 24.9291 27.5404C24.8499 27.3309 24.9314 27.0885 25.1326 26.9902Z" fill="#062150"/>
<path d="M28.6448 23.9263C28.8319 23.8025 29.0849 23.8534 29.2008 24.0456C30.3749 25.9919 30.8342 28.2919 30.4909 30.5474C30.1272 32.9371 28.8885 35.1065 27.0154 36.6344C25.1422 38.1622 22.7682 38.9397 20.3542 38.8157C17.9401 38.6918 15.6582 37.6754 13.9514 35.9637C12.2445 34.252 11.2345 31.9673 11.1174 29.5529C11.0003 27.1385 11.7845 24.7667 13.3177 22.8979C14.8508 21.029 17.0237 19.7965 19.4144 19.4396C21.6709 19.1027 23.9696 19.5684 25.9126 20.748C26.1044 20.8645 26.1547 21.1176 26.0303 21.3044C25.9059 21.4913 25.6541 21.541 25.4618 21.4253C23.687 20.3569 21.5916 19.9363 19.5345 20.2435C17.3431 20.5706 15.3514 21.7004 13.946 23.4134C12.5407 25.1264 11.8219 27.3004 11.9293 29.5135C12.0366 31.7266 12.9624 33.8209 14.5269 35.3898C16.0914 36.9588 18.1831 37.8904 20.3958 38.004C22.6086 38.1176 24.7847 37.405 26.5016 36.0045C28.2186 34.604 29.354 32.6156 29.6873 30.4251C30.0003 28.3688 29.5856 26.2723 28.5223 24.4944C28.4071 24.3018 28.4576 24.0501 28.6448 23.9263Z" fill="#062150"/>
<path d="M32.5957 21.3126C32.7793 21.191 33.0273 21.2412 33.1437 21.4281C34.9664 24.3552 35.6868 27.8415 35.1667 31.259C34.6265 34.8081 32.7869 38.03 30.005 40.2992C27.2231 42.5683 23.6973 43.7229 20.112 43.5389C16.5267 43.3548 13.1377 41.8452 10.6027 39.3031C8.0678 36.761 6.5678 33.3677 6.39389 29.782C6.21998 26.1962 7.38457 22.6736 9.66159 19.8982C11.9386 17.1227 15.1657 15.2922 18.7163 14.7621C22.1353 14.2516 25.6195 14.9818 28.5414 16.8128C28.728 16.9298 28.7775 17.1778 28.6554 17.3612C28.5334 17.5445 28.2861 17.5936 28.0993 17.477C25.3422 15.7554 22.0575 15.0695 18.8341 15.5508C15.479 16.0518 12.4297 17.7814 10.2782 20.404C8.12656 23.0266 7.02613 26.355 7.19046 29.7433C7.35479 33.1316 8.77216 36.3379 11.1674 38.74C13.5627 41.1421 16.7651 42.5685 20.1529 42.7424C23.5407 42.9163 26.8722 41.8253 29.5009 39.6812C32.1296 37.537 33.8678 34.4926 34.3782 31.139C34.8686 27.917 34.1921 24.6303 32.4783 21.8684C32.3622 21.6812 32.412 21.4341 32.5957 21.3126Z" fill="#062150"/>
</svg>
