<svg width="57" height="57" viewBox="0 0 57 57" fill="none" xmlns="http://www.w3.org/2000/svg">
<path d="M4.69727 20.1238C4.69727 17.3147 5.8301 15.5931 8.17443 14.2884L17.8247 8.91795C22.8814 6.10384 25.4098 4.69678 28.1816 4.69678C30.9535 4.69678 33.4818 6.10384 38.5385 8.91795L48.1889 14.2884C50.5331 15.5931 51.666 17.3147 51.666 20.1238C51.666 20.8856 51.666 21.2664 51.5828 21.5795C51.1458 23.2246 49.655 23.4843 48.2154 23.4843H8.14778C6.70816 23.4843 5.21749 23.2246 4.78045 21.5795C4.69727 21.2664 4.69727 20.8856 4.69727 20.1238Z" stroke="#062150" stroke-width="1.5"/>
<path d="M28.1719 16.439H28.193" stroke="#FF6000" stroke-width="2" stroke-linecap="round" stroke-linejoin="round"/>
<path d="M9.39453 23.4844V43.4461M18.7883 23.4844V43.4461" stroke="#062150" stroke-width="1.5"/>
<path d="M37.5742 23.4844V43.4461M46.968 23.4844V43.4461" stroke="#062150" stroke-width="1.5"/>
<path d="M44.6207 43.446H11.7426C7.85157 43.446 4.69727 46.6002 4.69727 50.4914C4.69727 51.1398 5.22299 51.6656 5.87148 51.6656H50.4918C51.1402 51.6656 51.666 51.1398 51.666 50.4914C51.666 46.6002 48.5118 43.446 44.6207 43.446Z" stroke="#062150" stroke-width="1.5"/>
</svg>
