<svg width="100" height="100" viewBox="0 0 100 100" fill="none" xmlns="http://www.w3.org/2000/svg">
<path d="M82 9L84.3264 20.6736L96 23L84.3264 25.3264L82 37L79.6736 25.3264L68 23L79.6736 20.6736L82 9Z" fill="#FF6000"/>
<path fill-rule="evenodd" clip-rule="evenodd" d="M37.7859 31C35.5767 31 33.7859 32.7909 33.7859 35V38.2852H16C14.8954 38.2852 14 39.1806 14 40.2852V59.7137C14 60.8183 14.8954 61.7137 16 61.7137H16.4286V80.9286C16.4286 82.0331 17.3241 82.9286 18.4286 82.9286H68.5715C69.6761 82.9286 70.5715 82.0331 70.5715 80.9286V61.7137H71C72.1046 61.7137 73 60.8183 73 59.7137V40.2852C73 39.1806 72.1046 38.2852 71 38.2852H53.2145V35C53.2145 32.7909 51.4236 31 49.2145 31H37.7859ZM49.2145 32.5H37.7859C36.4052 32.5 35.2859 33.6193 35.2859 35V38H51.7145V35C51.7145 33.6193 50.5952 32.5 49.2145 32.5ZM16 39.7852H71C71.2761 39.7852 71.5 40.009 71.5 40.2852V59.7137C71.5 59.9899 71.2761 60.2137 71 60.2137H47.1431V57.8555C47.1431 57.3032 46.6954 56.8555 46.1431 56.8555H40.8574C40.3051 56.8555 39.8574 57.3032 39.8574 57.8555V60.2137H16C15.7239 60.2137 15.5 59.9899 15.5 59.7137V40.2852C15.5 40.009 15.7239 39.7852 16 39.7852ZM39.8574 62H17.9286V80.9286C17.9286 81.2047 18.1525 81.4286 18.4286 81.4286H68.5715C68.8476 81.4286 69.0715 81.2047 69.0715 80.9286V62H47.1431V63.1412C47.1431 63.6935 46.6954 64.1412 46.1431 64.1412H40.8574C40.3051 64.1412 39.8574 63.6935 39.8574 63.1412V62Z" fill="#062150"/>
</svg>
