<svg width="66" height="58" viewBox="0 0 66 58" fill="none" xmlns="http://www.w3.org/2000/svg">
<path d="M0.75 15.478L18.1269 0.75M0.75 15.478L33.3976 57.032M0.75 15.478H18.1269M18.1269 0.75V15.478M18.1269 0.75H33.3976M48.1417 0.75L64.4655 15.478M48.1417 0.75V15.478M48.1417 0.75H33.3976M64.4655 15.478L33.3976 57.032M64.4655 15.478H48.1417M33.3976 57.032L18.1269 15.478M33.3976 57.032L48.1417 15.478M33.3976 57.032V15.478M48.1417 15.478H33.3976M48.1417 15.478L33.3976 0.75M18.1269 15.478H33.3976M18.1269 15.478L33.3976 0.75" stroke="white" stroke-width="1.5" stroke-linejoin="round"/>
</svg>
