<svg width="100" height="100" viewBox="0 0 100 100" fill="none" xmlns="http://www.w3.org/2000/svg">
<path d="M84 5L86.3264 16.6736L98 19L86.3264 21.3264L84 33L81.6736 21.3264L70 19L81.6736 16.6736L84 5Z" fill="#FF6000"/>
<path d="M12.1421 43.4692L29.519 28.7412M12.1421 43.4692L44.7897 85.0232M12.1421 43.4692H29.519M29.519 28.7412V43.4692M29.519 28.7412H44.7897M59.5338 28.7412L75.8575 43.4692M59.5338 28.7412V43.4692M59.5338 28.7412H44.7897M75.8575 43.4692L44.7897 85.0232M75.8575 43.4692H59.5338M44.7897 85.0232L29.519 43.4692M44.7897 85.0232L59.5338 43.4692M44.7897 85.0232V43.4692M59.5338 43.4692H44.7897M59.5338 43.4692L44.7897 28.7412M29.519 43.4692H44.7897M29.519 43.4692L44.7897 28.7412" stroke="white" stroke-width="1.5" stroke-linejoin="round"/>
</svg>
