<svg width="56" height="56" viewBox="0 0 56 56" fill="none" xmlns="http://www.w3.org/2000/svg">
<path d="M17.9467 45.7707C19.3257 45.7707 20.0153 45.7707 20.6434 46.0038C20.7307 46.036 20.8167 46.0717 20.9013 46.1105C21.5103 46.39 21.9979 46.8774 22.973 47.8525C25.2175 50.097 26.3396 51.2193 27.7205 51.3227C27.906 51.3367 28.0927 51.3367 28.2782 51.3227C29.659 51.2193 30.7814 50.097 33.0256 47.8525C34.0009 46.8774 34.4883 46.39 35.0973 46.1105C35.182 46.0717 35.2679 46.036 35.3552 46.0038C35.9835 45.7707 36.673 45.7707 38.052 45.7707H38.3064C41.8248 45.7707 43.5841 45.7707 44.6771 44.6776C45.7702 43.5846 45.7702 41.8253 45.7702 38.3069V38.0525C45.7702 36.6735 45.7702 35.984 46.0033 35.3557C46.0355 35.2684 46.0712 35.1825 46.11 35.0978C46.3895 34.4888 46.8769 34.0014 47.852 33.0261C50.0965 30.7819 51.2188 29.6595 51.3222 28.2787C51.3362 28.0932 51.3362 27.9065 51.3222 27.721C51.2188 26.3401 50.0965 25.218 47.852 22.9735C46.8769 21.9983 46.3895 21.5108 46.11 20.9018C46.0712 20.8172 46.0355 20.7312 46.0033 20.6439C45.7702 20.0158 45.7702 19.3262 45.7702 17.9472V17.6928C45.7702 14.1743 45.7702 12.4151 44.6771 11.3221C43.5841 10.229 41.8248 10.229 38.3064 10.229H38.052C36.673 10.229 35.9835 10.229 35.3552 9.99595C35.2679 9.96359 35.182 9.92796 35.0973 9.88916C34.4883 9.60979 34.0009 9.12221 33.0256 8.14707C30.7814 5.90263 29.659 4.78042 28.2782 4.67693C28.0927 4.66303 27.906 4.66303 27.7205 4.67693C26.3396 4.78042 25.2175 5.90263 22.973 8.14707C21.9979 9.12221 21.5103 9.60979 20.9013 9.88916C20.8167 9.92796 20.7307 9.96359 20.6434 9.99595C20.0153 10.229 19.3257 10.229 17.9467 10.229H17.6923C14.1739 10.229 12.4146 10.229 11.3216 11.3221C10.2285 12.4151 10.2285 14.1743 10.2285 17.6928V17.9472C10.2285 19.3262 10.2285 20.0158 9.99547 20.6439C9.9631 20.7312 9.92747 20.8172 9.88867 20.9018C9.6093 21.5108 9.12172 21.9983 8.14658 22.9735C5.90215 25.218 4.77993 26.3401 4.67645 27.721C4.66254 27.9065 4.66254 28.0932 4.67645 28.2787C4.77993 29.6595 5.90215 30.7819 8.14658 33.0261C9.12172 34.0014 9.6093 34.4888 9.88867 35.0978C9.92747 35.1825 9.9631 35.2684 9.99547 35.3557C10.2285 35.984 10.2285 36.6735 10.2285 38.0525V38.3069C10.2285 41.8253 10.2285 43.5846 11.3216 44.6776C12.4146 45.7707 14.1739 45.7707 17.6923 45.7707H17.9467Z" stroke="white" stroke-width="1.5"/>
<path d="M35 21L21 35" stroke="#FF8F4B" stroke-width="1.5" stroke-linecap="round" stroke-linejoin="round"/>
<path d="M35 35H34.9748M21.0251 21H21" stroke="white" stroke-width="2" stroke-linecap="round" stroke-linejoin="round"/>
</svg>
