<svg width="56" height="56" viewBox="0 0 56 56" fill="none" xmlns="http://www.w3.org/2000/svg">
<path d="M37.625 47.833V33.833M42 33.833V30.333M42 51.333V47.833M37.625 40.833H46.375M46.375 40.833C47.8247 40.833 49 42.0083 49 43.458V45.208C49 46.6577 47.8247 47.833 46.375 47.833H35M46.375 40.833C47.8247 40.833 49 39.6577 49 38.208V36.458C49 35.0083 47.8247 33.833 46.375 33.833H35" stroke="white" stroke-width="1.5" stroke-linecap="round" stroke-linejoin="round"/>
<path d="M25.666 11.667C32.2656 11.667 37.8987 11.667 39.949 13.5309C41.9993 15.3947 41.9994 17.334 41.9994 23.3337L37.3327 21.0003" stroke="#FF8F4B" stroke-width="1.5" stroke-linecap="round" stroke-linejoin="round"/>
<path d="M27.9994 46.6667C21.3997 46.6667 15.7665 46.6667 13.7163 44.8028C11.666 42.9389 11.666 40.9997 11.666 35L16.3327 37.3333" stroke="white" stroke-width="1.5" stroke-linecap="round" stroke-linejoin="round"/>
<path d="M12.8333 7.58366C9.61168 7.58366 7 9.54242 7 11.9587C7 14.3749 9.61168 16.3337 12.8333 16.3337C16.055 16.3337 18.6667 18.2924 18.6667 20.7087C18.6667 23.1249 16.055 25.0837 12.8333 25.0837M12.8333 7.58366C15.3732 7.58366 17.5339 8.80107 18.3347 10.5003M12.8333 7.58366V4.66699M12.8333 25.0837C10.2935 25.0837 8.13272 23.8661 7.33192 22.167M12.8333 25.0837V28.0003" stroke="#FF8F4B" stroke-width="1.5" stroke-linecap="round"/>
</svg>
