<svg width="100" height="100" viewBox="0 0 100 100" fill="none" xmlns="http://www.w3.org/2000/svg">
<path fill-rule="evenodd" clip-rule="evenodd" d="M41.9492 22C42.0054 22 42.0616 22.0007 42.1176 22.0022C42.2449 22.0007 42.3724 22 42.5 22C60.4493 22 75 36.5507 75 54.5C75 72.4493 60.4493 87 42.5 87C42.3724 87 42.2449 86.9993 42.1176 86.9978C42.0616 86.9993 42.0054 87 41.9492 87C41.804 87 41.6593 86.9951 41.5152 86.9854C24.0215 86.4647 10 72.1198 10 54.5C10 36.8802 24.0215 22.5353 41.5152 22.0146C41.6593 22.0049 41.804 22 41.9492 22ZM30.8872 75.1446C32.476 79.5232 34.5598 82.9422 36.9444 84.9605C31.1142 83.9041 25.8525 81.2149 21.65 77.3838C24.6866 76.4221 27.7731 75.6758 30.8872 75.1446ZM32.5512 74.8816C32.8007 75.552 33.062 76.1969 33.3342 76.8146C34.5748 79.6299 36.0094 81.8051 37.5187 83.2537C39.0198 84.6945 40.5143 85.3475 41.9492 85.3475C43.384 85.3475 44.8785 84.6945 46.3796 83.2537C47.8889 81.8051 49.3235 79.6299 50.5641 76.8146C50.8558 76.1527 51.135 75.4595 51.4005 74.7372C45.1423 73.924 38.7994 73.9721 32.5512 74.8816ZM51.9493 73.1429C45.3271 72.2501 38.609 72.3001 31.9976 73.2929C30.5023 68.7044 29.5298 63.1046 29.3216 56.9788H54.5767C54.3707 63.038 53.4171 68.5825 51.9493 73.1429ZM53.0721 74.9752C51.4182 79.5961 49.2163 83.1664 46.6911 85.1763C53.0645 84.3138 58.8221 81.5116 63.35 77.3838C59.9755 76.3151 56.5393 75.5123 53.0721 74.9752ZM64.6945 76.082C61.0593 74.8803 57.3508 73.9818 53.6061 73.3863C55.0852 68.6937 56.0277 63.0706 56.2302 56.9788L73.3598 56.9788C72.773 64.3865 69.5786 71.0601 64.6945 76.082ZM30.3476 73.5607C26.9584 74.1519 23.6018 74.9923 20.3055 76.082C15.4214 71.0601 12.227 64.3865 11.6402 56.9788L27.6682 56.9788C27.8731 63.1463 28.8367 68.8333 30.3476 73.5607ZM29.2843 55.3263C29.2812 55.0518 29.2797 54.7763 29.2797 54.5C29.2797 47.5803 30.2535 41.2247 31.875 36.0892C38.5574 37.2334 45.3804 37.2902 52.0767 36.2596C53.6661 41.365 54.6186 47.6567 54.6186 54.5C54.6186 54.7763 54.6171 55.0518 54.614 55.3263H29.2843ZM27.6271 54.5C27.6271 47.5327 28.5933 41.0775 30.2381 35.7866C26.8665 35.1171 23.5365 34.1686 20.2829 32.9413C14.873 38.5154 11.5424 46.1187 11.5424 54.5C11.5424 54.7763 11.546 55.0517 11.5532 55.3263L27.6317 55.3263C27.6286 55.0517 27.6271 54.7762 27.6271 54.5ZM51.5472 34.6685C45.2015 35.6153 38.7427 35.5604 32.4101 34.5037C32.7017 33.6943 33.0102 32.9206 33.3342 32.1854C34.5748 29.3701 36.0094 27.1949 37.5187 25.7463C39.0198 24.3055 40.5143 23.6525 41.9492 23.6525C43.384 23.6525 44.8785 24.3055 46.3796 25.7463C47.8889 27.1949 49.3235 29.3701 50.5641 32.1854C50.91 32.9703 51.2383 33.7992 51.5472 34.6685ZM56.2712 54.5C56.2712 47.6192 55.3289 41.2379 53.7211 35.9842C57.4483 35.3091 61.1291 34.2948 64.7171 32.9413C70.127 38.5154 73.4576 46.1187 73.4576 54.5C73.4576 54.7763 73.454 55.0517 73.4468 55.3263L56.2666 55.3263C56.2697 55.0517 56.2712 54.7762 56.2712 54.5ZM53.2037 34.3981C56.6566 33.7858 60.0696 32.8748 63.4037 31.6653C58.8676 27.5106 53.0897 24.6897 46.6911 23.8237C49.2839 25.8874 51.5358 29.5961 53.2037 34.3981ZM21.5964 31.6653C24.5971 32.7539 27.6618 33.6007 30.762 34.2055C32.3658 29.659 34.4966 26.1113 36.9444 24.0395C31.0893 25.1004 25.8077 27.808 21.5964 31.6653Z" fill="#062150"/>
<path d="M84 4L86.3264 15.6736L98 18L86.3264 20.3264L84 32L81.6736 20.3264L70 18L81.6736 15.6736L84 4Z" fill="#FF6000"/>
</svg>
