<svg width="100" height="100" viewBox="0 0 100 100" fill="none" xmlns="http://www.w3.org/2000/svg">
<path d="M34.6449 57.5224L35.0585 56.6106C35.7263 55.1385 35.1077 53.402 33.6595 52.6837L30.447 51.0902C28.9262 50.3359 27.0831 50.9925 26.3818 52.5385L19.1971 68.3772C18.5294 69.8493 19.148 71.5858 20.5961 72.304L23.8087 73.8975C25.3295 74.6518 27.1726 73.9952 27.8738 72.4493L28.0406 72.0816M34.6449 57.5224C37.2102 57.4041 42.6989 57.1673 45.5625 58.5878M34.6449 57.5224L28.0406 72.0816M64.2477 56.102L64.038 55.6562C63.3262 54.1432 63.9888 52.3403 65.5109 51.6482L68.6192 50.2349C70.1216 49.5518 71.8937 50.2106 72.585 51.7093L79.7991 67.3478C80.471 68.8043 79.8784 70.5315 78.454 71.2688L75.5343 72.78C74.0233 73.562 72.1649 72.9323 71.4407 71.3927L71.0482 70.5585M64.2477 56.102L58.5722 57.0841C58.2534 57.1392 57.9279 57.1425 57.6081 57.0937L50.1696 55.9584C49.2915 55.8244 48.3991 56.0864 47.7328 56.6739L40.0456 63.4526C39.4522 63.9758 39.0037 64.7594 39.3582 65.4666C40.0252 66.7972 42.1659 67.7509 47.0619 65.4738C47.7146 65.1702 48.4533 65.0722 49.1532 65.2405L59.2572 67.6705C59.6682 67.7693 60.0537 67.9539 60.3884 68.2121L66.3239 72.7918M64.2477 56.102L71.0482 70.5585M66.3239 72.7918L71.0482 70.5585M66.3239 72.7918C66.3239 75.9877 64.0568 76.9347 62.7443 77.0531M28.0406 72.0816C32.8301 76.7227 43.7587 85.8447 49.8529 85.9362C50.0963 85.9399 50.3361 85.96 50.5784 85.9826C51.847 86.1009 53.8936 85.6667 54.1534 83.0898M54.1534 83.0898L52.3636 80.9592M54.1534 83.0898C57.8761 83.6579 58.5682 81.4326 58.4489 80.249M58.4489 80.249L56.3011 77.7633M58.4489 80.249C61.8852 80.249 62.7443 78.1184 62.7443 77.0531M62.7443 77.0531L59.8807 74.2122" stroke="#062150" stroke-width="1.5" stroke-linecap="round"/>
<path d="M45.7297 31.8506L47.5287 33.4006C47.6877 33.5376 47.9254 33.5285 48.0734 33.3797L52.2703 29.1609M60 33.6437V20.9535C60 20.7108 59.7877 20.5238 59.5466 20.5524C56.6765 20.8922 51.3139 21.0292 48.8198 19.3249C48.601 19.1754 48.2802 19.235 48.0848 19.4141C46.5509 20.8201 41.3755 20.7779 38.4369 20.5336C38.2015 20.514 38 20.6988 38 20.9351V33.6437C38.1969 35.8204 40.701 41.1027 49.1246 44.9223C49.2325 44.9712 49.3611 44.969 49.4673 44.9164C57.6527 40.8646 59.9016 35.7213 60 33.6437Z" stroke="#FF6000" stroke-width="1.5" stroke-linecap="round"/>
<path d="M47.8419 14.4069C45.8271 16.5554 37.788 16.4689 33.437 16.1073C33.2023 16.0878 33 16.2722 33 16.5077V34.2759C33.287 37.2968 36.9456 44.6376 49.2664 49.9291C49.3705 49.9738 49.4935 49.9717 49.5961 49.9236C61.5704 44.3074 64.8565 37.1593 65 34.2759V16.5252C65 16.2835 64.7885 16.097 64.5485 16.1254C60.3514 16.6222 52.1203 16.8583 48.5317 14.3097C48.3216 14.1605 48.0182 14.2189 47.8419 14.4069Z" stroke="#062150" stroke-width="1.5" stroke-linecap="round"/>
</svg>
