<svg width="56" height="56" viewBox="0 0 56 56" fill="none" xmlns="http://www.w3.org/2000/svg">
<path d="M44.3327 4.66699V11.337C40.1238 7.21107 34.3588 4.66699 27.9993 4.66699C15.1127 4.66699 4.66602 15.1137 4.66602 28.0003C4.66602 31.3188 5.35876 34.4756 6.60756 37.3337M11.666 51.3337V44.6636C15.8748 48.7896 21.64 51.3337 27.9993 51.3337C40.8859 51.3337 51.3327 40.8869 51.3327 28.0003C51.3327 24.6819 50.6399 21.5251 49.3911 18.667" stroke="white" stroke-width="1.5" stroke-linecap="round" stroke-linejoin="round"/>
<path d="M28.2337 19.7167C25.0121 19.7167 22.4004 21.6755 22.4004 24.0917C22.4004 26.508 25.0121 28.4667 28.2337 28.4667C31.4554 28.4667 34.0671 30.4255 34.0671 32.8417C34.0671 35.258 31.4554 37.2167 28.2337 37.2167M28.2337 19.7167C30.7736 19.7167 32.9343 20.9341 33.7351 22.6334M28.2337 19.7167V16.8M28.2337 37.2167C25.6938 37.2167 23.5331 35.9992 22.7323 34.3M28.2337 37.2167V40.1334" stroke="white" stroke-width="1.5" stroke-linecap="round"/>
</svg>
