<svg width="56" height="56" viewBox="0 0 56 56" fill="none" xmlns="http://www.w3.org/2000/svg">
<path d="M46.6673 51.3337V39.6671C46.6673 35.2673 46.6673 33.0675 45.3005 31.7006C43.9336 30.3337 41.7337 30.3337 37.334 30.3337L28.0007 51.3337L18.6673 30.3337C14.2675 30.3337 12.0676 30.3337 10.7008 31.7006C9.33398 33.0675 9.33398 35.2673 9.33398 39.6671V51.3337" stroke="white" stroke-width="1.5" stroke-linecap="round" stroke-linejoin="round"/>
<path d="M27.9993 34.9997L26.8327 44.333L27.9993 47.833L29.166 44.333L27.9993 34.9997ZM27.9993 34.9997L25.666 30.333H30.3327L27.9993 34.9997Z" stroke="#FF8F4B" stroke-width="1.5" stroke-linecap="round" stroke-linejoin="round"/>
<path d="M36.1673 15.167V12.8337C36.1673 8.32335 32.511 4.66699 28.0007 4.66699C23.4903 4.66699 19.834 8.32335 19.834 12.8337V15.167C19.834 19.6773 23.4903 23.3336 28.0007 23.3336C32.511 23.3336 36.1673 19.6773 36.1673 15.167Z" stroke="white" stroke-width="1.5" stroke-linecap="round" stroke-linejoin="round"/>
</svg>
