<svg width="50" height="50" viewBox="0 0 50 50" fill="none" xmlns="http://www.w3.org/2000/svg">
<path d="M24.0711 15.5C23.9438 15.5 23.8595 15.4554 23.7751 15.3678L22.1265 13.6524C21.9578 13.4772 21.9578 13.2128 22.1265 13.0377C22.2952 12.8625 22.5498 12.8625 22.7185 13.0377L24.0728 14.444L26.7815 11.6314C26.9502 11.4562 27.2048 11.4562 27.3735 11.6314C27.5422 11.8065 27.5422 12.0709 27.3735 12.2461L24.3671 15.3678C24.2828 15.4554 24.1985 15.5 24.0711 15.5Z" fill="#FF6000"/>
<path fill-rule="evenodd" clip-rule="evenodd" d="M24.68 19.9774C24.6562 19.9661 24.6323 19.9547 24.608 19.9547H24.6074C23.6495 19.6415 21.2548 18.5728 19.7188 15.9899C18.3792 13.6732 18.426 11.4453 18.57 10.2861C18.6187 10.0633 18.8095 9.88579 19.049 9.88579C21.2045 9.79525 23.1203 8.81535 24.3663 7.16709C24.5104 6.9443 24.9426 6.9443 25.1334 7.16709C26.331 8.81713 28.2954 9.79702 30.4507 9.88579C30.6902 9.88579 30.881 10.0633 30.9296 10.2861C31.0737 11.4455 31.1224 13.7167 29.7809 15.9899C28.2488 18.5728 25.854 19.6432 24.8961 19.9547C24.8475 20 24.8007 20 24.7521 20C24.7277 20 24.7039 19.9887 24.68 19.9774ZM24.7522 8.1454C23.4594 9.61615 21.5436 10.5525 19.4837 10.7301C19.3883 11.8441 19.4837 13.6717 20.4884 15.5427C21.7811 17.7706 23.7456 18.7052 24.7035 19.062C25.6614 18.707 27.6259 17.7706 28.9187 15.5427C30.0206 13.6716 30.116 11.844 30.0206 10.7301C27.9608 10.5508 26.0449 9.61615 24.7522 8.1454Z" fill="#FF6000"/>
<path fill-rule="evenodd" clip-rule="evenodd" d="M21.4971 28.125C20.8128 28.6726 19.9446 29 19 29C18.0554 29 17.1872 28.6726 16.5029 28.125C16.5019 28.125 16.501 28.125 16.5 28.125H15.5C14.3264 28.125 13.375 29.0764 13.375 30.25V34.75C13.375 34.9571 13.2071 35.125 13 35.125C12.7929 35.125 12.625 34.9571 12.625 34.75V30.25C12.625 28.6622 13.9122 27.375 15.5 27.375H15.7811C15.2902 26.7108 15 25.8893 15 25C15 22.7909 16.7909 21 19 21C21.2091 21 23 22.7909 23 25C23 25.9066 22.6984 26.7428 22.19 27.4137C22.5363 27.4478 22.977 27.5137 23.3686 27.6442C23.4425 27.6689 23.5036 27.7143 23.5476 27.7718C23.9979 27.5963 24.4877 27.5 25 27.5C25.4426 27.5 25.8684 27.5719 26.2664 27.7046C26.4608 27.5266 26.7137 27.4347 26.9421 27.3839C27.1897 27.3289 27.4539 27.3125 27.6875 27.3125C27.7038 27.3125 27.7199 27.3126 27.736 27.3127C27.2725 26.6598 27 25.8617 27 25C27 22.7909 28.7909 21 31 21C33.2091 21 35 22.7909 35 25C35 25.8893 34.7098 26.7108 34.2189 27.375H34.5C36.0878 27.375 37.375 28.6622 37.375 30.25V34.75C37.375 34.9571 37.2071 35.125 37 35.125C36.7929 35.125 36.625 34.9571 36.625 34.75V30.25C36.625 29.0764 35.6736 28.125 34.5 28.125H33.5C33.499 28.125 33.4981 28.125 33.4971 28.125C32.8128 28.6726 31.9446 29 31 29C30.0554 29 29.1873 28.6726 28.503 28.125C28.4817 28.1252 28.4602 28.1235 28.4385 28.1199L28.4363 28.1196L28.426 28.118C28.4165 28.1165 28.4019 28.1143 28.3827 28.1116C28.3444 28.1063 28.2881 28.099 28.2186 28.0917C28.0788 28.077 27.8894 28.0625 27.6875 28.0625C27.492 28.0625 27.2959 28.0761 27.1264 28.1114C28.252 28.8192 29 30.0722 29 31.5C29 32.5045 28.6297 33.4225 28.0183 34.125H28.5C30.0878 34.125 31.375 35.4122 31.375 37V41.5C31.375 41.7071 31.2071 41.875 31 41.875C30.7929 41.875 30.625 41.7071 30.625 41.5V37C30.625 35.8264 29.6736 34.875 28.5 34.875H27.1479C26.5274 35.2707 25.7905 35.5 25 35.5C24.2095 35.5 23.4726 35.2707 22.8521 34.875H21.5C20.3264 34.875 19.375 35.8264 19.375 37V41.5C19.375 41.7071 19.2071 41.875 19 41.875C18.7929 41.875 18.625 41.7071 18.625 41.5V37C18.625 35.4122 19.9122 34.125 21.5 34.125H21.9817C21.3703 33.4225 21 32.5045 21 31.5C21 30.1554 21.6634 28.9658 22.6807 28.2406C22.4681 28.1993 22.2521 28.1722 22.0598 28.1547C21.8959 28.1398 21.7543 28.1324 21.6541 28.1286C21.6041 28.1268 21.5646 28.1259 21.5381 28.1254C21.5248 28.1252 21.5148 28.1251 21.5084 28.125L21.5014 28.125L21.5 28.125C21.4991 28.125 21.4981 28.125 21.4971 28.125ZM22.25 25C22.25 26.7949 20.7949 28.25 19 28.25C17.2051 28.25 15.75 26.7949 15.75 25C15.75 23.2051 17.2051 21.75 19 21.75C20.7949 21.75 22.25 23.2051 22.25 25ZM23.2933 34.2664C23.2453 34.2062 23.1792 34.1611 23.1032 34.1394C22.2836 33.5494 21.75 32.587 21.75 31.5C21.75 29.7051 23.2051 28.25 25 28.25C26.7949 28.25 28.25 29.7051 28.25 31.5C28.25 32.587 27.7164 33.5494 26.8968 34.1394C26.8208 34.1611 26.7547 34.2062 26.7067 34.2664C26.2107 34.573 25.626 34.75 25 34.75C24.374 34.75 23.7893 34.573 23.2933 34.2664ZM34.25 25C34.25 26.7949 32.7949 28.25 31 28.25C29.2051 28.25 27.75 26.7949 27.75 25C27.75 23.2051 29.2051 21.75 31 21.75C32.7949 21.75 34.25 23.2051 34.25 25Z" fill="#062150"/>
<path d="M15.875 32C15.875 31.7929 15.7071 31.625 15.5 31.625C15.2929 31.625 15.125 31.7929 15.125 32V36C15.125 36.2071 15.2929 36.375 15.5 36.375C15.7071 36.375 15.875 36.2071 15.875 36V32Z" fill="#062150"/>
<path d="M34.875 32C34.875 31.7929 34.7071 31.625 34.5 31.625C34.2929 31.625 34.125 31.7929 34.125 32V36C34.125 36.2071 34.2929 36.375 34.5 36.375C34.7071 36.375 34.875 36.2071 34.875 36V32Z" fill="#062150"/>
<path d="M21.375 38C21.375 37.7929 21.2071 37.625 21 37.625C20.7929 37.625 20.625 37.7929 20.625 38V42.5C20.625 42.7071 20.7929 42.875 21 42.875C21.2071 42.875 21.375 42.7071 21.375 42.5V38Z" fill="#062150"/>
<path d="M28.375 38C28.375 37.7929 28.2071 37.625 28 37.625C27.7929 37.625 27.625 37.7929 27.625 38V42.5C27.625 42.7071 27.7929 42.875 28 42.875C28.2071 42.875 28.375 42.7071 28.375 42.5V38Z" fill="#062150"/>
</svg>
