<svg width="24" height="24" viewBox="0 0 24 24" fill="none" xmlns="http://www.w3.org/2000/svg">
<path d="M20 15.1833V18.1301C20 18.5676 19.6617 18.9306 19.2254 18.9614C18.8609 18.9872 18.5636 19 18.3333 19C10.9695 19 5 13.0305 5 5.66667C5 5.43642 5.01288 5.13906 5.03863 4.77458C5.06948 4.33823 5.43245 4 5.86988 4H8.81675C9.03065 4 9.2098 4.16202 9.23127 4.37483C9.25056 4.56589 9.26848 4.71928 9.28506 4.83502C9.45362 6.01227 9.79794 7.1328 10.2906 8.16919C10.3697 8.33554 10.3181 8.53466 10.1682 8.64172L8.36962 9.9265C9.4646 12.4843 11.5157 14.5354 14.0735 15.6304L15.3559 13.8349C15.4643 13.6832 15.6658 13.6311 15.8342 13.711C16.8705 14.2032 17.9909 14.5472 19.168 14.7153C19.283 14.7318 19.4354 14.7496 19.6252 14.7687C19.838 14.7902 20 14.9694 20 15.1833Z" fill="#111C2E"/>
</svg>
