<svg width="100" height="100" viewBox="0 0 100 100" fill="none" xmlns="http://www.w3.org/2000/svg">
<path fill-rule="evenodd" clip-rule="evenodd" d="M75 84C80.5228 84 85 79.5228 85 74C85 68.4772 80.5228 64 75 64C69.4772 64 65 68.4772 65 74C65 79.5228 69.4772 84 75 84ZM74.6632 78.8108V79.8333H75.3806V78.8104C75.926 78.7758 76.4013 78.6611 76.8066 78.4662C77.3024 78.2292 77.6801 77.9056 77.9396 77.4955C78.2021 77.0853 78.3333 76.6159 78.3333 76.0873C78.3333 75.668 78.2531 75.308 78.0927 75.0072C77.9352 74.7064 77.7282 74.4542 77.4716 74.2507C77.2149 74.0471 76.9364 73.883 76.636 73.7585C76.3357 73.6339 76.0426 73.5352 75.7568 73.4623L75.3806 73.3604V70.4402C75.75 70.4816 76.0664 70.5957 76.3298 70.7826C76.6681 71.0195 76.8606 71.3537 76.9073 71.7852H78.2108C78.1992 71.2839 78.0592 70.8403 77.7909 70.4544C77.5226 70.0656 77.1551 69.7602 76.6885 69.5384C76.3022 69.3536 75.8662 69.2458 75.3806 69.215V68.1667H74.6632V69.225C74.2281 69.2659 73.8286 69.3719 73.4646 69.543C72.9863 69.7648 72.6072 70.0762 72.3272 70.4772C72.0472 70.8783 71.9073 71.3477 71.9073 71.8854C71.9073 72.5356 72.1158 73.0582 72.5328 73.4531C72.9527 73.8481 73.5214 74.1474 74.2388 74.3509L74.6632 74.4715V77.568C74.447 77.5441 74.2429 77.4972 74.0507 77.4271C73.762 77.3177 73.5243 77.1521 73.3377 76.9304C73.154 76.7055 73.049 76.4245 73.0227 76.0873H71.6667C71.6958 76.6493 71.8489 77.1354 72.126 77.5456C72.403 77.9527 72.7865 78.2672 73.2765 78.4889C73.678 78.6707 74.1402 78.778 74.6632 78.8108ZM75.3806 77.5654C75.615 77.5376 75.8308 77.4823 76.028 77.3998C76.3284 77.2722 76.5646 77.0959 76.7367 76.8711C76.9087 76.6432 76.9947 76.3774 76.9947 76.0736C76.9947 75.7971 76.9189 75.5708 76.7673 75.3945C76.6185 75.2183 76.4159 75.0725 76.1592 74.957C75.9276 74.8517 75.6681 74.7577 75.3806 74.6751V77.5654ZM74.6632 73.1631V70.4477C74.4555 70.4761 74.2674 70.5285 74.0989 70.6048C73.8306 70.7233 73.622 70.8874 73.4733 71.097C73.3275 71.3036 73.2546 71.5391 73.2546 71.8034C73.2546 72.0252 73.3042 72.2166 73.4033 72.3776C73.5054 72.5386 73.6381 72.6738 73.8014 72.7832C73.9676 72.8896 74.1455 72.9792 74.3351 73.0521C74.447 73.0933 74.5563 73.1304 74.6632 73.1631Z" fill="#FF6000"/>
<path d="M17.583 21.2542C17.583 19.4569 19.0399 18 20.8372 18H73.4959C75.2931 18 76.75 19.4569 76.75 21.2542V57.9097C76.75 58.3999 76.3527 58.7972 75.8625 58.7972C75.3724 58.7972 74.975 58.3999 74.975 57.9097V21.2542C74.975 20.4372 74.3128 19.775 73.4959 19.775H20.8372C20.0202 19.775 19.358 20.4372 19.358 21.2542V83.7458C19.358 84.5627 20.0202 85.225 20.8372 85.225H59.2826C59.7728 85.225 60.1701 85.6223 60.1701 86.1125C60.1701 86.6026 59.7728 87 59.2826 87H20.8372C19.0399 87 17.583 85.543 17.583 83.7458V21.2542Z" fill="#062150"/>
<path d="M43.0906 34.2707C43.0906 33.7805 43.4879 33.3832 43.9781 33.3832L68.2103 33.3832C68.7004 33.3832 69.0978 33.7805 69.0978 34.2707C69.0978 34.7608 68.7004 35.1582 68.2103 35.1582L43.9781 35.1582C43.4879 35.1582 43.0906 34.7608 43.0906 34.2707Z" fill="#062150"/>
<path d="M43.9781 50.0484C43.4879 50.0484 43.0906 50.4458 43.0906 50.9359C43.0906 51.4261 43.4879 51.8234 43.9781 51.8234L68.2103 51.8234C68.7004 51.8234 69.0978 51.4261 69.0978 50.9359C69.0978 50.4458 68.7004 50.0484 68.2103 50.0484L43.9781 50.0484Z" fill="#062150"/>
<path d="M43.0906 65.6012C43.0906 65.111 43.4879 64.7137 43.9781 64.7137H55.4565C55.9466 64.7137 56.344 65.111 56.344 65.6012C56.344 66.0913 55.9466 66.4887 55.4565 66.4887H43.9781C43.4879 66.4887 43.0906 66.0914 43.0906 65.6012Z" fill="#062150"/>
<path d="M37.025 32.291C37.3477 31.9048 37.2962 31.3302 36.91 31.0076C36.5239 30.6849 35.9492 30.7364 35.6266 31.1225L30.9332 36.7397L28.0659 33.6512C27.7235 33.2824 27.147 33.261 26.7782 33.6034C26.4094 33.9457 26.388 34.5223 26.7304 34.8911L31.0052 39.4956L37.025 32.291Z" fill="#062150"/>
<path d="M36.91 47.6728C37.2962 47.9955 37.3477 48.5701 37.025 48.9563L31.0052 56.1609L26.7304 51.5563C26.388 51.1875 26.4094 50.611 26.7782 50.2686C27.147 49.9263 27.7235 49.9477 28.0659 50.3165L30.9332 53.4049L35.6266 47.7878C35.9492 47.4016 36.5239 47.3502 36.91 47.6728Z" fill="#062150"/>
<path d="M37.025 63.6215C37.3477 63.2354 37.2962 62.6608 36.91 62.3381C36.5239 62.0154 35.9492 62.0669 35.6266 62.4531L30.9332 68.0702L28.0659 64.9817C27.7235 64.6129 27.147 64.5915 26.7782 64.9339C26.4094 65.2763 26.388 65.8528 26.7304 66.2216L31.0052 70.8262L37.025 63.6215Z" fill="#062150"/>
</svg>
