<svg width="100" height="100" viewBox="0 0 100 100" fill="none" xmlns="http://www.w3.org/2000/svg">
<path d="M66.8706 31.3028L42.0908 56.0826C40.5379 57.6351 42.2289 59.326 43.7817 57.7735L68.5615 32.9937C68.6006 32.9545 68.6538 32.9325 68.7092 32.9325H76.2989C76.3543 32.9325 76.4074 32.9105 76.4466 32.8713L86.8585 22.4594C86.9951 22.3228 86.889 22.0899 86.6962 22.1033L77.3321 22.755C77.2055 22.7638 77.1004 22.6587 77.1092 22.5321L77.7609 13.1679C77.7743 12.9752 77.5414 12.8691 77.4048 13.0057L66.9929 23.4176C66.9537 23.4568 66.9317 23.5099 66.9317 23.5653V31.1551C66.9317 31.2105 66.9097 31.2636 66.8706 31.3028Z" fill="#FF6000"/>
<path d="M50.264 53.9802C50.6665 53.7835 51.1555 53.9495 51.3201 54.3662C52.1138 56.3765 52.2596 58.5925 51.725 60.7007C51.1238 63.0719 49.7009 65.1528 47.7094 66.5734C45.7179 67.994 43.2871 68.662 40.8493 68.4586C38.4116 68.2552 36.125 67.1936 34.3965 65.4626C32.668 63.7317 31.6096 61.4436 31.4096 59.0056C31.2096 56.5676 31.8811 54.1377 33.3044 52.1482C34.7278 50.1587 36.8108 48.7387 39.1828 48.1408C41.2918 47.6092 43.5076 47.7581 45.5167 48.5547C45.9332 48.7198 46.0985 49.209 45.9012 49.6113C45.704 50.0135 45.219 50.1758 44.8001 50.0168C43.1381 49.3858 41.3158 49.2763 39.5794 49.714C37.5798 50.218 35.8238 51.4151 34.6239 53.0922C33.424 54.7693 32.858 56.8177 33.0266 58.873C33.1952 60.9282 34.0874 62.857 35.5445 64.3162C37.0017 65.7754 38.9292 66.6703 40.9842 66.8418C43.0392 67.0133 45.0884 66.4501 46.7672 65.2526C48.446 64.0551 49.6456 62.3008 50.1524 60.3019C50.5925 58.5661 50.4856 56.7437 49.8569 55.0807C49.6985 54.6617 49.8615 54.1769 50.264 53.9802Z" fill="#062150"/>
<path d="M57.2905 47.8523C57.6649 47.6047 58.1707 47.7066 58.4026 48.091C60.7508 51.9835 61.6693 56.5835 60.9827 61.0945C60.2553 65.874 57.778 70.2127 54.0317 73.2685C50.2855 76.3242 45.5375 77.8791 40.7093 77.6313C35.8812 77.3834 31.3174 75.3505 27.9037 71.9272C24.49 68.5038 22.4701 63.9343 22.2359 59.1055C22.0017 54.2767 23.57 49.5331 26.6363 45.7955C29.7027 42.0578 34.0484 39.5928 38.8298 38.8789C43.3428 38.2051 47.9402 39.1366 51.8261 41.4958C52.2098 41.7288 52.3103 42.2349 52.0615 42.6086C51.8128 42.9823 51.3091 43.0818 50.9246 42.8503C47.375 40.7136 43.1842 39.8724 39.0699 40.4867C34.6871 41.1411 30.7037 43.4005 27.8931 46.8265C25.0824 50.2525 23.6448 54.6005 23.8595 59.0267C24.0742 63.4529 25.9257 67.6415 29.0548 70.7794C32.1838 73.9173 36.3671 75.7807 40.7927 76.0078C45.2182 76.235 49.5704 74.8098 53.0043 72.0088C56.4382 69.2078 58.7089 65.2309 59.3757 60.8499C60.0016 56.7374 59.1722 52.5443 57.0456 48.9886C56.8151 48.6034 56.9161 48.1 57.2905 47.8523Z" fill="#062150"/>
<path d="M65.1914 42.6249C65.5587 42.3819 66.0545 42.4821 66.2874 42.856C69.9328 48.7101 71.3736 55.6827 70.3333 62.5177C69.2529 69.616 65.5738 76.0597 60.0099 80.5981C54.4461 85.1364 47.3945 87.4456 40.2239 87.0775C33.0534 86.7094 26.2753 83.6902 21.2055 78.606C16.1356 73.5218 13.1356 66.7352 12.7878 59.5637C12.44 52.3921 14.7691 45.347 19.3232 39.7961C23.8772 34.2451 30.3313 30.5842 37.4326 29.5239C44.2706 28.5029 51.239 29.9634 57.0828 33.6254C57.456 33.8593 57.5549 34.3554 57.3109 34.7221C57.0668 35.0887 56.5722 35.187 56.1986 34.9537C50.6844 31.5105 44.1149 30.1388 37.6681 31.1014C30.958 32.1033 24.8595 35.5625 20.5563 40.8077C16.2531 46.0529 14.0522 52.7099 14.3809 59.4864C14.7096 66.2629 17.5443 72.6756 22.3349 77.4798C27.1255 82.2839 33.5301 85.1368 40.3057 85.4846C47.0813 85.8324 53.7444 83.6504 59.0018 79.3621C64.2591 75.0737 67.7356 68.985 68.7565 62.2778C69.7373 55.8337 68.3841 49.2604 64.9566 43.7365C64.7244 43.3622 64.824 42.8679 65.1914 42.6249Z" fill="#062150"/>
</svg>
