<svg width="56" height="56" viewBox="0 0 56 56" fill="none" xmlns="http://www.w3.org/2000/svg">
<path d="M4.66602 19.9948C4.66602 17.2037 5.79157 15.4932 8.12082 14.197L17.709 8.86102C22.7333 6.06501 25.2453 4.66699 27.9994 4.66699C30.7534 4.66699 33.2655 6.06501 38.2896 8.86102L47.878 14.197C50.2071 15.4932 51.3327 17.2038 51.3327 19.9948C51.3327 20.7517 51.3327 21.1301 51.2501 21.4412C50.8159 23.0757 49.3347 23.3337 47.9043 23.3337H8.09434C6.66398 23.3337 5.1829 23.0757 4.74866 21.4412C4.66602 21.1301 4.66602 20.7517 4.66602 19.9948Z" stroke="white" stroke-width="1.5"/>
<path d="M9.33398 23.333V43.1663M18.6673 23.333V43.1663" stroke="white" stroke-width="1.5"/>
<path d="M25.666 43.167H11.666C7.80003 43.167 4.66602 46.3009 4.66602 50.167C4.66602 50.8112 5.18836 51.3337 5.83268 51.3337H25.666" stroke="white" stroke-width="1.5" stroke-linecap="round"/>
<path d="M50.1673 33.833L33.834 50.1663" stroke="white" stroke-width="1.5" stroke-linecap="round" stroke-linejoin="round"/>
<path d="M35.584 37.333C36.5505 37.333 37.334 36.5495 37.334 35.583C37.334 34.6165 36.5505 33.833 35.584 33.833C34.6175 33.833 33.834 34.6165 33.834 35.583C33.834 36.5495 34.6175 37.333 35.584 37.333Z" stroke="white" stroke-width="1.5"/>
<path d="M48.416 50.167C49.3825 50.167 50.166 49.3835 50.166 48.417C50.166 47.4505 49.3825 46.667 48.416 46.667C47.4495 46.667 46.666 47.4505 46.666 48.417C46.666 49.3835 47.4495 50.167 48.416 50.167Z" stroke="white" stroke-width="1.5"/>
</svg>
