<svg width="100" height="100" viewBox="0 0 100 100" fill="none" xmlns="http://www.w3.org/2000/svg">
<path fill-rule="evenodd" clip-rule="evenodd" d="M66.6634 31.1862C66.6634 40.1256 59.1282 47.3724 49.833 47.3724C40.5378 47.3724 33.0026 40.1256 33.0026 31.1862C33.0026 22.2468 40.5378 15 49.833 15C59.1282 15 66.6634 22.2468 66.6634 31.1862ZM64.9408 31.1862C64.9408 39.1115 58.2408 45.6499 49.833 45.6499C41.4252 45.6499 34.7252 39.1115 34.7252 31.1862C34.7252 23.2609 41.4252 16.7226 49.833 16.7226C58.2408 16.7226 64.9408 23.2609 64.9408 31.1862Z" fill="#062150"/>
<path fill-rule="evenodd" clip-rule="evenodd" d="M22.9689 63.0603C22.6182 58.1506 25.7786 53.6748 30.5227 52.3627L41.706 49.2694C46.7168 47.8834 52.0027 47.8299 57.0406 49.114L70.2643 52.4848C75.1104 53.7201 78.3769 58.2479 78.0206 63.2363L76.5679 83.5735C76.4391 85.3763 74.939 86.7732 73.1315 86.7732H27.8705C26.063 86.7732 24.5629 85.3763 24.4341 83.5735L22.9689 63.0603ZM76.3024 63.1135L74.8497 83.4508C74.7853 84.3522 74.0353 85.0506 73.1315 85.0506H27.8705C26.9668 85.0506 26.2167 84.3522 26.1523 83.4508L24.6871 62.9376C24.3948 58.8462 27.0285 55.1164 30.9819 54.0229L42.1652 50.9296C46.8869 49.6236 51.8679 49.5731 56.6151 50.7832L69.8389 54.154C73.8773 55.1834 76.5993 58.9566 76.3024 63.1135Z" fill="#062150"/>
<path fill-rule="evenodd" clip-rule="evenodd" d="M66.6634 31.1862C66.6634 40.1256 59.1282 47.3724 49.833 47.3724C40.5378 47.3724 33.0026 40.1256 33.0026 31.1862C33.0026 22.2468 40.5378 15 49.833 15C59.1282 15 66.6634 22.2468 66.6634 31.1862ZM64.9408 31.1862C64.9408 39.1115 58.2408 45.6499 49.833 45.6499C41.4252 45.6499 34.7252 39.1115 34.7252 31.1862C34.7252 23.2609 41.4252 16.7226 49.833 16.7226C58.2408 16.7226 64.9408 23.2609 64.9408 31.1862Z" stroke="#062150"/>
<path fill-rule="evenodd" clip-rule="evenodd" d="M22.9689 63.0603C22.6182 58.1506 25.7786 53.6748 30.5227 52.3627L41.706 49.2694C46.7168 47.8834 52.0027 47.8299 57.0406 49.114L70.2643 52.4848C75.1104 53.7201 78.3769 58.2479 78.0206 63.2363L76.5679 83.5735C76.4391 85.3763 74.939 86.7732 73.1315 86.7732H27.8705C26.063 86.7732 24.5629 85.3763 24.4341 83.5735L22.9689 63.0603ZM76.3024 63.1135L74.8497 83.4508C74.7853 84.3522 74.0353 85.0506 73.1315 85.0506H27.8705C26.9668 85.0506 26.2167 84.3522 26.1523 83.4508L24.6871 62.9376C24.3948 58.8462 27.0285 55.1164 30.9819 54.0229L42.1652 50.9296C46.8869 49.6236 51.8679 49.5731 56.6151 50.7832L69.8389 54.154C73.8773 55.1834 76.5993 58.9566 76.3024 63.1135Z" stroke="#062150"/>
<path d="M49.1547 49.8622C47.8608 50.2935 47.1171 51.6483 47.4479 52.9715L47.8685 54.6539C47.8877 54.7307 47.9566 54.7845 48.0358 54.7845H51.9245C52.0036 54.7845 52.0726 54.7307 52.0918 54.6539L52.5124 52.9715C52.8432 51.6483 52.0995 50.2935 50.8055 49.8622C50.2698 49.6836 49.6905 49.6836 49.1547 49.8622Z" fill="#FF6000"/>
<path d="M47.841 56.2751L45.8515 71.1964C45.8327 71.3369 45.8722 71.4791 45.9608 71.5898L49.5743 76.1066C49.7823 76.3667 50.1779 76.3667 50.386 76.1066L53.9994 71.5898C54.088 71.4791 54.1275 71.3369 54.1088 71.1964L52.1193 56.2751C52.0848 56.0168 51.8646 55.824 51.6041 55.824H48.3562C48.0957 55.824 47.8754 56.0168 47.841 56.2751Z" fill="#FF6000"/>
</svg>
