<svg width="24" height="24" viewBox="0 0 24 24" fill="none" xmlns="http://www.w3.org/2000/svg">
<path fill-rule="evenodd" clip-rule="evenodd" d="M12 22.0004C17.5229 22.0004 22 17.5232 22 12.0002H19.7778C19.7778 16.2959 16.2956 19.7782 12 19.7782C7.70446 19.7782 4.22222 16.2959 4.22222 12.0002C4.22222 7.70458 7.70446 4.22227 12 4.22227C13.2353 4.22227 14.4034 4.51029 15.4408 5.02283L16.9229 3.2937C15.4696 2.47016 13.7897 2 12 2C6.47716 2 2 6.47725 2 12.0002C2 17.5232 6.47716 22.0004 12 22.0004ZM19.4932 8.2992C19.9037 7.84307 19.8667 7.14051 19.4106 6.72999C18.9545 6.31948 18.252 6.35646 17.8414 6.81259L11.6274 13.7171L9.45551 11.5311C9.023 11.0957 8.31949 11.0934 7.88416 11.526C7.44884 11.9585 7.44657 12.662 7.87907 13.0973L10.8791 16.117C11.0944 16.3336 11.3894 16.4522 11.6947 16.4446C12.0001 16.4371 12.2889 16.3042 12.4932 16.0772L19.4932 8.2992Z" fill="#FF6000"/>
</svg>
