<svg width="50" height="50" viewBox="0 0 50 50" fill="none" xmlns="http://www.w3.org/2000/svg">
<path fill-rule="evenodd" clip-rule="evenodd" d="M34.0959 14.7952C34.0959 19.6527 29.8569 23.5905 24.6277 23.5905C19.3986 23.5905 15.1595 19.6527 15.1595 14.7952C15.1595 9.93776 19.3986 6 24.6277 6C29.8569 6 34.0959 9.93776 34.0959 14.7952ZM33.1269 14.7952C33.1269 19.1017 29.3577 22.6545 24.6277 22.6545C19.8978 22.6545 16.1286 19.1017 16.1286 14.7952C16.1286 10.4888 19.8978 6.936 24.6277 6.936C29.3577 6.936 33.1269 10.4888 33.1269 14.7952Z" fill="#062150"/>
<path fill-rule="evenodd" clip-rule="evenodd" d="M9.51492 32.115C9.31763 29.4471 11.0956 27.0151 13.7644 26.3021L20.0558 24.6213C22.8747 23.8682 25.8483 23.8391 28.6825 24.5368L36.1217 26.3684C38.8479 27.0397 40.6855 29.5 40.4851 32.2106L39.6679 43.2614C39.5954 44.241 38.7515 45 37.7347 45H12.2724C11.2556 45 10.4116 44.241 10.3392 43.2614L9.51492 32.115ZM39.5185 32.1439L38.7013 43.1947C38.6651 43.6845 38.2431 44.064 37.7347 44.064H12.2724C11.764 44.064 11.342 43.6845 11.3058 43.1947L10.4815 32.0483C10.3171 29.8251 11.7987 27.7984 14.0228 27.2042L20.3141 25.5234C22.9704 24.8137 25.7725 24.7863 28.4431 25.4438L35.8823 27.2754C38.1542 27.8348 39.6855 29.8851 39.5185 32.1439Z" fill="#062150"/>
<path fill-rule="evenodd" clip-rule="evenodd" d="M34.0959 14.7952C34.0959 19.6527 29.8569 23.5905 24.6277 23.5905C19.3986 23.5905 15.1595 19.6527 15.1595 14.7952C15.1595 9.93776 19.3986 6 24.6277 6C29.8569 6 34.0959 9.93776 34.0959 14.7952ZM33.1269 14.7952C33.1269 19.1017 29.3577 22.6545 24.6277 22.6545C19.8978 22.6545 16.1286 19.1017 16.1286 14.7952C16.1286 10.4888 19.8978 6.936 24.6277 6.936C29.3577 6.936 33.1269 10.4888 33.1269 14.7952Z" stroke="#062150"/>
<path fill-rule="evenodd" clip-rule="evenodd" d="M9.51492 32.115C9.31763 29.4471 11.0956 27.0151 13.7644 26.3021L20.0558 24.6213C22.8747 23.8682 25.8483 23.8391 28.6825 24.5368L36.1217 26.3684C38.8479 27.0397 40.6855 29.5 40.4851 32.2106L39.6679 43.2614C39.5954 44.241 38.7515 45 37.7347 45H12.2724C11.2556 45 10.4116 44.241 10.3392 43.2614L9.51492 32.115ZM39.5185 32.1439L38.7013 43.1947C38.6651 43.6845 38.2431 44.064 37.7347 44.064H12.2724C11.764 44.064 11.342 43.6845 11.3058 43.1947L10.4815 32.0483C10.3171 29.8251 11.7987 27.7984 14.0228 27.2042L20.3141 25.5234C22.9704 24.8137 25.7725 24.7863 28.4431 25.4438L35.8823 27.2754C38.1542 27.8348 39.6855 29.8851 39.5185 32.1439Z" stroke="#062150"/>
<path d="M24.1006 25.0655C23.4745 25.2765 23.1146 25.9393 23.2747 26.5866L23.4782 27.4097C23.4875 27.4472 23.5209 27.4736 23.5591 27.4736H25.4409C25.4791 27.4736 25.5125 27.4472 25.5218 27.4097L25.7253 26.5866C25.8854 25.9393 25.5255 25.2765 24.8994 25.0655C24.6401 24.9782 24.3599 24.9782 24.1006 25.0655Z" fill="#FF6000"/>
<path d="M23.4649 28.2028L22.5022 35.5025C22.4931 35.5712 22.5123 35.6407 22.5551 35.6949L24.3036 37.9046C24.4043 38.0318 24.5957 38.0318 24.6964 37.9046L26.4449 35.6949C26.4877 35.6407 26.5069 35.5712 26.4978 35.5025L25.5351 28.2028C25.5184 28.0765 25.4119 27.9821 25.2858 27.9821H23.7142C23.5881 27.9821 23.4816 28.0765 23.4649 28.2028Z" fill="#FF6000"/>
</svg>
