<svg width="20" height="20" viewBox="0 0 20 20" fill="none" xmlns="http://www.w3.org/2000/svg">
<path d="M10.0013 1.66699C14.6038 1.66699 18.3346 5.39783 18.3346 10.0003C18.3346 14.6028 14.6038 18.3337 10.0013 18.3337C8.52863 18.336 7.08186 17.9463 5.80965 17.2045L1.67131 18.3337L2.79798 14.1937C2.05556 12.9211 1.66552 11.4737 1.66798 10.0003C1.66798 5.39783 5.39881 1.66699 10.0013 1.66699ZM7.16131 6.08366L6.99465 6.09033C6.88675 6.0969 6.7813 6.12524 6.68465 6.17366C6.59425 6.22485 6.51173 6.28885 6.43965 6.36366C6.33965 6.45783 6.28298 6.53949 6.22215 6.61866C5.91392 7.01941 5.74796 7.51142 5.75048 8.01699C5.75215 8.42533 5.85881 8.82283 6.02548 9.19449C6.36631 9.94616 6.92715 10.742 7.66715 11.4795C7.84548 11.657 8.02048 11.8353 8.20881 12.0012C9.1283 12.8107 10.224 13.3945 11.4088 13.7062L11.8821 13.7787C12.0363 13.787 12.1905 13.7753 12.3455 13.7678C12.5882 13.7553 12.8252 13.6896 13.0396 13.5753C13.1488 13.5191 13.2553 13.4579 13.3588 13.392C13.3588 13.392 13.3946 13.3687 13.463 13.317C13.5755 13.2337 13.6446 13.1745 13.738 13.077C13.8071 13.0053 13.8671 12.9212 13.913 12.8253C13.978 12.6895 14.043 12.4303 14.0696 12.2145C14.0896 12.0495 14.0838 11.9595 14.0813 11.9037C14.078 11.8145 14.0038 11.722 13.923 11.6828L13.438 11.4653C13.438 11.4653 12.713 11.1495 12.2696 10.9478C12.2233 10.9276 12.1735 10.916 12.123 10.9137C12.066 10.9078 12.0084 10.9142 11.954 10.9325C11.8997 10.9507 11.8499 10.9804 11.808 11.0195C11.8038 11.0178 11.748 11.0653 11.1455 11.7953C11.1109 11.8418 11.0633 11.8769 11.0086 11.8962C10.954 11.9155 10.8949 11.9181 10.8388 11.9037C10.7845 11.8891 10.7313 11.8707 10.6796 11.8487C10.5763 11.8053 10.5405 11.7887 10.4696 11.7587C9.99137 11.5499 9.54855 11.268 9.15715 10.9228C9.05215 10.8312 8.95465 10.7312 8.85465 10.6345C8.5268 10.3205 8.24108 9.96533 8.00465 9.57783L7.95548 9.49866C7.92017 9.44546 7.89161 9.38808 7.87048 9.32783C7.83881 9.20533 7.92131 9.10699 7.92131 9.10699C7.92131 9.10699 8.12381 8.88532 8.21798 8.76533C8.30965 8.64866 8.38715 8.53533 8.43715 8.45449C8.53548 8.29616 8.56631 8.13366 8.51465 8.00783C8.28131 7.43783 8.03965 6.87033 7.79131 6.30699C7.74215 6.19533 7.59631 6.11533 7.46381 6.09949C7.41881 6.09449 7.37381 6.08949 7.32881 6.08616C7.2169 6.0806 7.10476 6.08171 6.99298 6.08949L7.16048 6.08283L7.16131 6.08366Z" fill="white"/>
</svg>
