<svg width="50" height="50" viewBox="0 0 50 50" fill="none" xmlns="http://www.w3.org/2000/svg">
<path d="M39 8L39.8309 12.1691L44 13L39.8309 13.8309L39 18L38.1691 13.8309L34 13L38.1691 12.1691L39 8Z" fill="#FF6000"/>
<path fill-rule="evenodd" clip-rule="evenodd" d="M18.7457 16C18.7717 16 18.7976 16.0003 18.8235 16.001C18.8823 16.0003 18.9411 16 19 16C27.2843 16 34 22.7157 34 31C34 39.2843 27.2843 46 19 46C18.9411 46 18.8823 45.9997 18.8235 45.999C18.7976 45.9997 18.7717 46 18.7457 46C18.6787 46 18.6119 45.9977 18.5454 45.9932C10.4714 45.7529 4 39.1322 4 31C4 22.8678 10.4714 16.2471 18.5454 16.0068C18.6119 16.0023 18.6787 16 18.7457 16ZM20.6262 44.0998C19.9897 44.7107 19.3794 44.9788 18.8142 44.9988C18.7417 44.9979 18.6694 44.9964 18.5972 44.9943C18.0545 44.9528 17.4718 44.682 16.8652 44.0998C16.1979 43.4593 15.5514 42.4847 14.9867 41.2033C14.8851 40.9728 14.7868 40.7337 14.692 40.4866C17.3891 40.1173 20.1222 40.0965 22.8233 40.424C22.7212 40.6934 22.6149 40.9534 22.5047 41.2033C21.9401 42.4847 21.2935 43.4593 20.6262 44.0998ZM23.1588 39.4581C20.2351 39.0839 17.273 39.1059 14.3538 39.5242C13.6957 37.477 13.2625 34.9884 13.1593 32.2627L24.3321 32.2627C24.2301 34.9591 23.805 37.4234 23.1588 39.4581ZM23.8383 40.5637C23.1695 42.3957 22.3123 43.8608 21.3342 44.8063C23.9358 44.3697 26.294 43.2155 28.1985 41.5543C26.7645 41.1204 25.3074 40.7902 23.8383 40.5637ZM29.0307 40.7666C27.4325 40.2525 25.8046 39.8643 24.1616 39.6022C24.8142 37.4904 25.233 34.9793 25.3328 32.2627H32.9438C32.6491 35.5592 31.2118 38.5268 29.0307 40.7666ZM13.355 39.6831C12.688 37.5546 12.2597 35.0141 12.1586 32.2627H5.05617C5.35086 35.5593 6.78824 38.5269 8.9694 40.7666C10.4107 40.303 11.8761 39.9418 13.355 39.6831ZM9.80163 41.5544C11.5511 43.0804 13.6836 44.1785 16.0358 44.6856C15.1219 43.7523 14.3183 42.3614 13.6817 40.6415C12.3752 40.8635 11.0793 41.1677 9.80163 41.5544ZM24.3549 31.2627L13.1366 31.2627C13.1359 31.1753 13.1356 31.0878 13.1356 31C13.1356 27.8626 13.5723 24.985 14.2966 22.6566C17.2496 23.139 20.2591 23.164 23.2181 22.7317C23.9284 25.0467 24.3559 27.8962 24.3559 31C24.3559 31.0878 24.3556 31.1753 24.3549 31.2627ZM14.9867 20.7967C14.8602 21.0836 14.7389 21.3838 14.623 21.6962C17.3624 22.127 20.1501 22.1508 22.8948 21.7677C22.771 21.4295 22.6408 21.1055 22.5047 20.7967C21.9401 19.5153 21.2935 18.5407 20.6262 17.9002C19.9897 17.2893 19.3794 17.0212 18.8142 17.0012C18.7417 17.0022 18.6694 17.0036 18.5972 17.0057C18.0545 17.0472 17.4718 17.318 16.8652 17.9002C16.1979 18.5407 15.5514 19.5153 14.9867 20.7967ZM25.3559 31C25.3559 27.874 24.9345 24.9714 24.2136 22.5686C25.851 22.2712 27.469 21.8325 29.0493 21.2526C31.4946 23.7732 33 27.2108 33 31C33 31.0877 32.9992 31.1753 32.9976 31.2627L25.3549 31.2627C25.3556 31.1753 25.3559 31.0877 25.3559 31ZM23.9004 21.6088C25.3666 21.3498 26.8172 20.9737 28.2382 20.4804C26.3268 18.8006 23.9539 17.6334 21.3342 17.1937C22.3428 18.1687 23.2228 19.6962 23.9004 21.6088ZM9.76174 20.4805C11.0284 20.9202 12.3187 21.2668 13.6227 21.5204C14.2683 19.7258 15.0934 18.2769 16.0358 17.3144C13.6657 17.8253 11.5187 18.9363 9.76174 20.4805ZM13.3055 22.4771C11.8322 22.1839 10.376 21.7758 8.9506 21.2527C6.50534 23.7733 5 27.2108 5 31C5 31.0877 5.00081 31.1753 5.00241 31.2627L12.1365 31.2627C12.1359 31.1753 12.1356 31.0877 12.1356 31C12.1356 27.8342 12.5677 24.8975 13.3055 22.4771Z" fill="#062150"/>
</svg>
