<svg width="50" height="50" viewBox="0 0 50 50" fill="none" xmlns="http://www.w3.org/2000/svg">
<path d="M17.3224 28.7612C18.6051 28.702 21.3494 28.5837 22.7812 29.2939M17.3224 28.7612L14.0203 36.0408M17.3224 28.7612C17.7717 27.7709 17.3555 26.6026 16.3813 26.1194L16.0544 25.9573C14.8399 25.3548 13.3678 25.8793 12.8078 27.1139L9.95611 33.4004C9.4228 34.5761 9.91689 35.963 11.0734 36.5366L11.7235 36.8591C12.5827 37.2853 13.6241 36.9143 14.0203 36.0408M32.1239 28.051L29.5267 28.5004C29.208 28.5556 28.8824 28.5588 28.5626 28.51L25.7776 28.0849C24.8994 27.9509 24.0071 28.2129 23.3408 28.8005L20.4859 31.3179C19.8926 31.8411 19.4219 32.7609 20.0909 33.1833C20.5964 33.5024 21.5081 33.5719 23.0201 32.9595C23.6874 32.6893 24.4192 32.5824 25.1191 32.7507L29.3169 33.7603C29.7279 33.8591 30.1133 34.0437 30.448 34.3019L33.1619 36.3959M32.1239 28.051L35.5241 35.2792M32.1239 28.051C31.7103 27.1719 32.0953 26.1243 32.9797 25.7221L33.5397 25.4675C34.7168 24.9323 36.1051 25.4484 36.6468 26.6226L39.5696 32.9587C40.0902 34.087 39.6311 35.4253 38.5275 35.9964L38.1765 36.1781C37.1975 36.6848 35.9934 36.2768 35.5241 35.2792M33.1619 36.3959L35.5241 35.2792M33.1619 36.3959C33.1619 37.9939 32.0284 38.4673 31.3722 38.5265M14.0203 36.0408C16.3677 38.3155 21.6647 42.7431 24.7432 42.9602C24.9859 42.9773 25.2286 42.9993 25.4719 43C26.1031 43.0018 26.9587 42.7156 27.0767 41.5449M27.0767 41.5449L26.1818 40.4796M27.0767 41.5449C28.9381 41.829 29.2841 40.7163 29.2244 40.1245M29.2244 40.1245L28.1506 38.8816M29.2244 40.1245C30.9426 40.1245 31.3722 39.0592 31.3722 38.5265M31.3722 38.5265L29.9403 37.1061" stroke="#062150" stroke-linecap="round"/>
<path d="M22.8649 15.9253L23.6233 16.5788C23.7823 16.7157 24.02 16.7066 24.168 16.5579L26.1351 14.5805M30 16.8218V10.7064C30 10.4637 29.7857 10.2769 29.5441 10.3013C28.1565 10.4418 25.8858 10.4682 24.6357 9.79881C24.402 9.67371 24.0581 9.72882 23.8281 9.86037C22.9237 10.3775 20.8092 10.3805 19.4387 10.2837C19.203 10.2671 19 10.4517 19 10.6879V16.8218C19.0978 17.9028 20.3335 20.5155 24.4768 22.4221C24.5844 22.4716 24.7119 22.4694 24.8178 22.4163C28.8418 20.397 29.9511 17.8535 30 16.8218Z" stroke="#FF6000" stroke-linecap="round"/>
<path d="M23.7313 7.3685C22.5261 8.24144 19.0287 8.22683 16.937 8.07087C16.7022 8.05336 16.5 8.23776 16.5 8.47324V17.1379C16.6429 18.6416 18.4564 22.286 24.5507 24.9289C24.6547 24.974 24.7769 24.972 24.8793 24.9235C30.8001 22.1213 32.4286 18.5731 32.5 17.1379V8.49075C32.5 8.24904 32.288 8.06256 32.0477 8.08814C29.9753 8.30874 26.2971 8.37929 24.4769 7.29217C24.2557 7.16005 23.94 7.21735 23.7313 7.3685Z" stroke="#062150" stroke-linecap="round"/>
</svg>
