<svg width="100" height="100" viewBox="0 0 100 100" fill="none" xmlns="http://www.w3.org/2000/svg">
<path fill-rule="evenodd" clip-rule="evenodd" d="M33.4795 59.8979C33.5886 59.2878 34.2207 58.9228 34.8036 59.1334L36.4942 59.7441C36.8522 59.8734 37.2525 59.7883 37.5269 59.5246L38.823 58.2791C39.2699 57.8496 39.9958 57.9259 40.3436 58.4389L41.3524 59.9267C41.566 60.2417 41.9398 60.4082 42.3168 60.3561L44.0975 60.1102C44.7115 60.0255 45.2539 60.5139 45.2338 61.1333L45.1754 62.93C45.163 63.3103 45.3677 63.6648 45.7033 63.8442L47.2884 64.692C47.8349 64.9843 47.9867 65.6982 47.6063 66.1876L46.503 67.6067C46.2694 67.9072 46.2266 68.3142 46.3926 68.6567L47.1767 70.2742C47.4471 70.8319 47.1502 71.4987 46.5548 71.671L44.8281 72.1707C44.4625 72.2765 44.1887 72.5806 44.1217 72.9552L43.8053 74.7248C43.6962 75.3349 43.064 75.6998 42.4811 75.4892L40.7905 74.8785C40.4325 74.7492 40.0322 74.8343 39.7578 75.098L38.4617 76.3436C38.0149 76.773 37.289 76.6967 36.9411 76.1838L35.9323 74.6959C35.7188 74.3809 35.3449 74.2145 34.9679 74.2665L33.1872 74.5124C32.5732 74.5972 32.0308 74.1088 32.0509 73.4893L32.1093 71.6927C32.1217 71.3123 31.9171 70.9579 31.5815 70.7784L29.9964 69.9307C29.4498 69.6384 29.2981 68.9244 29.6785 68.4351L30.7817 67.0159C31.0153 66.7154 31.0581 66.3084 30.8921 65.966L30.108 64.3484C29.8376 63.7907 30.1345 63.1239 30.7299 62.9516L32.4566 62.452C32.8222 62.3462 33.096 62.042 33.163 61.6674L33.4795 59.8979ZM38.4888 72.1572C41.2502 72.1572 43.4888 69.9186 43.4888 67.1572C43.4888 64.3958 41.2502 62.1572 38.4888 62.1572C35.7273 62.1572 33.4888 64.3958 33.4888 67.1572C33.4888 69.9186 35.7273 72.1572 38.4888 72.1572ZM38.4888 73.1572C41.8025 73.1572 44.4888 70.4709 44.4888 67.1572C44.4888 63.8435 41.8025 61.1572 38.4888 61.1572C35.175 61.1572 32.4888 63.8435 32.4888 67.1572C32.4888 70.4709 35.175 73.1572 38.4888 73.1572ZM41.4888 67.1572C41.4888 68.8141 40.1456 70.1572 38.4888 70.1572C36.8319 70.1572 35.4888 68.8141 35.4888 67.1572C35.4888 65.5004 36.8319 64.1572 38.4888 64.1572C40.1456 64.1572 41.4888 65.5004 41.4888 67.1572ZM42.4888 67.1572C42.4888 69.3664 40.6979 71.1572 38.4888 71.1572C36.2796 71.1572 34.4888 69.3664 34.4888 67.1572C34.4888 64.9481 36.2796 63.1572 38.4888 63.1572C40.6979 63.1572 42.4888 64.9481 42.4888 67.1572Z" fill="#FF6000"/>
<path d="M33.174 34.2468C32.7872 34.2468 32.4737 34.5629 32.4737 34.9529C32.4737 35.3428 32.7872 35.659 33.174 35.659L66.7899 35.659C67.1766 35.659 67.4902 35.3428 67.4902 34.9529C67.4902 34.5629 67.1767 34.2468 66.7899 34.2468L33.174 34.2468Z" fill="white"/>
<path d="M32.4737 42.4843C32.4737 42.0943 32.7872 41.7782 33.174 41.7782L66.7899 41.7782C67.1767 41.7782 67.4902 42.0944 67.4902 42.4843C67.4902 42.8743 67.1766 43.1904 66.7899 43.1904L33.174 43.1904C32.7872 43.1904 32.4737 42.8743 32.4737 42.4843Z" fill="white"/>
<path d="M33.174 49.3096C32.7872 49.3096 32.4737 49.6258 32.4737 50.0157C32.4737 50.4057 32.7872 50.7218 33.174 50.7218L66.7899 50.7218C67.1767 50.7218 67.4902 50.4057 67.4902 50.0157C67.4902 49.6258 67.1766 49.3096 66.7899 49.3096L33.174 49.3096Z" fill="white"/>
<path d="M47.414 57.5471C47.414 57.1572 47.7276 56.841 48.1144 56.841L66.7899 56.841C67.1767 56.841 67.4902 57.1572 67.4902 57.5471C67.4902 57.9371 67.1767 58.2532 66.7899 58.2532L48.1144 58.2532C47.7276 58.2532 47.414 57.9371 47.414 57.5471Z" fill="white"/>
<path d="M55.5846 64.3724C55.1978 64.3724 54.8842 64.6886 54.8842 65.0785C54.8842 65.4685 55.1978 65.7846 55.5846 65.7846H66.7899C67.1767 65.7846 67.4902 65.4685 67.4902 65.0785C67.4902 64.6886 67.1767 64.3724 66.7899 64.3724H55.5846Z" fill="white"/>
<path fill-rule="evenodd" clip-rule="evenodd" d="M31.9307 12.6223L30.1561 17.0658H25.7038C24.6724 17.0658 23.8362 17.9088 23.8362 18.9486V44.1958C23.6883 44.2874 23.5737 44.4342 23.5258 44.6167L16.0862 72.955C15.7129 74.377 16.5882 75.8265 18.0126 76.145L23.8362 77.4471V81.0827C23.8362 82.1226 24.6724 82.9656 25.7038 82.9656H40.9944C41.0802 83.0482 41.1881 83.11 41.3117 83.1404L64.8353 88.9257C66.1912 89.2592 67.563 88.4397 67.9243 87.0806L69.0179 82.9656H74.2601C75.2915 82.9656 76.1276 82.1226 76.1276 81.0827V57.9212C76.1784 57.8505 76.217 57.7692 76.2395 57.6794L83.9213 26.9937C84.2648 25.6216 83.4519 24.2257 82.0961 23.8594L76.1276 22.247V18.9486C76.1276 17.9088 75.2915 17.0658 74.2601 17.0658H58.8409C58.7469 16.9423 58.6119 16.8492 58.4502 16.8098L34.9163 11.0729C33.6776 10.7709 32.4067 11.4305 31.9307 12.6223ZM34.5871 12.4455L53.5406 17.0658H31.6661L33.23 13.1497C33.4464 12.608 34.0241 12.3082 34.5871 12.4455ZM17.4402 73.3164L23.8362 48.9533V76.0007L18.3159 74.7663C17.6684 74.6216 17.2706 73.9627 17.4402 73.3164ZM65.1673 87.5538L46.5112 82.9656H67.5678L66.5713 86.7151C66.4071 87.3329 65.7836 87.7054 65.1673 87.5538ZM82.5633 26.6481L76.1276 52.3558V23.709L81.7336 25.2234C82.3499 25.3899 82.7194 26.0244 82.5633 26.6481ZM74.2601 18.4779H25.7038C25.4459 18.4779 25.2369 18.6887 25.2369 18.9486V81.0827C25.2369 81.3427 25.4459 81.5535 25.7038 81.5535H74.2601C74.5179 81.5535 74.7269 81.3427 74.7269 81.0827V18.9486C74.7269 18.6887 74.5179 18.4779 74.2601 18.4779Z" fill="white"/>
</svg>
