<svg width="31" height="31" viewBox="0 0 31 31" fill="none" xmlns="http://www.w3.org/2000/svg">
<path fill-rule="evenodd" clip-rule="evenodd" d="M17.6113 26.7725V16.4892H21.129L21.6567 12.4804H17.6113V9.92144C17.6113 8.76117 17.9384 7.97046 19.6367 7.97046L21.7991 7.96959V4.384C21.4251 4.33633 20.1415 4.22705 18.6474 4.22705C15.5275 4.22705 13.3916 6.0949 13.3916 9.52441V12.4804H9.86328V16.4892H13.3916V26.7725H17.6113Z" fill="white"/>
<mask id="mask0_2853_5433" style="mask-type:luminance" maskUnits="userSpaceOnUse" x="9" y="4" width="13" height="23">
<path fill-rule="evenodd" clip-rule="evenodd" d="M17.6113 26.7725V16.4892H21.129L21.6567 12.4804H17.6113V9.92144C17.6113 8.76117 17.9384 7.97046 19.6367 7.97046L21.7991 7.96959V4.384C21.4251 4.33633 20.1415 4.22705 18.6474 4.22705C15.5275 4.22705 13.3916 6.0949 13.3916 9.52441V12.4804H9.86328V16.4892H13.3916V26.7725H17.6113Z" fill="white"/>
</mask>
<g mask="url(#mask0_2853_5433)">
</g>
</svg>
