<svg width="26" height="26" viewBox="0 0 26 26" fill="none" xmlns="http://www.w3.org/2000/svg">
<path d="M14.2452 0.00158926C15.1878 -0.00202769 16.1304 0.00744554 17.0727 0.030006L17.3233 0.0390477C17.6126 0.049381 17.8981 0.0622976 18.243 0.0777976C19.6173 0.142381 20.555 0.359381 21.3778 0.678423C22.2303 1.00651 22.9485 1.45084 23.6667 2.16901C24.3233 2.81433 24.8315 3.59494 25.156 4.45655C25.475 5.27934 25.692 6.21838 25.7566 7.59271C25.7721 7.9363 25.785 8.22305 25.7953 8.51238L25.8031 8.76296C25.826 9.70484 25.8359 10.647 25.8328 11.5891L25.8341 12.5527V14.2448C25.8373 15.1874 25.8274 16.13 25.8044 17.0723L25.7966 17.3228C25.7863 17.6122 25.7734 17.8976 25.7579 18.2425C25.6933 19.6168 25.4737 20.5546 25.156 21.3774C24.8326 22.2399 24.3242 23.0212 23.6667 23.6662C23.0208 24.3228 22.2398 24.831 21.3778 25.1555C20.555 25.4745 19.6173 25.6915 18.243 25.7561C17.8981 25.7716 17.6126 25.7845 17.3233 25.7949L17.0727 25.8026C16.1304 25.8256 15.1878 25.8355 14.2452 25.8323L13.2817 25.8336H11.5909C10.6483 25.8368 9.70572 25.8269 8.76341 25.8039L8.51283 25.7962C8.2062 25.7851 7.89964 25.7721 7.59316 25.7574C6.21883 25.6928 5.28108 25.4733 4.457 25.1555C3.59504 24.8317 2.8143 24.3234 2.16945 23.6662C1.51205 23.0207 1.00337 22.2396 0.67887 21.3774C0.359829 20.5546 0.142829 19.6168 0.0782452 18.2425C0.0638598 17.936 0.050943 17.6295 0.0394953 17.3228L0.0330371 17.0723C0.00922338 16.13 -0.00154166 15.1874 0.000745293 14.2448V11.5891C-0.00285971 10.647 0.00661353 9.70484 0.0291621 8.76296L0.0382037 8.51238C0.048537 8.22305 0.0614536 7.9363 0.0769536 7.59271C0.141537 6.21709 0.358537 5.28063 0.677578 4.45655C1.00227 3.59452 1.51195 2.81412 2.17075 2.1703C2.81515 1.51252 3.5954 1.00337 4.457 0.678423C5.28108 0.359381 6.21754 0.142381 7.59316 0.0777976L8.51283 0.0390477L8.76341 0.0325895C9.70527 0.00878769 10.6474 -0.00197735 11.5896 0.000297688L14.2452 0.00158926ZM12.9174 6.45992C12.0617 6.44782 11.2121 6.60591 10.418 6.92501C9.62392 7.24411 8.90116 7.71785 8.29175 8.3187C7.68234 8.91955 7.19843 9.63553 6.86813 10.425C6.53784 11.2145 6.36775 12.0618 6.36775 12.9176C6.36775 13.7734 6.53784 14.6207 6.86813 15.4102C7.19843 16.1997 7.68234 16.9157 8.29175 17.5165C8.90116 18.1174 9.62392 18.5911 10.418 18.9102C11.2121 19.2293 12.0617 19.3874 12.9174 19.3753C14.6303 19.3753 16.273 18.6949 17.4841 17.4837C18.6953 16.2725 19.3757 14.6298 19.3757 12.917C19.3757 11.2041 18.6953 9.56141 17.4841 8.35023C16.273 7.13906 14.6303 6.45992 12.9174 6.45992ZM12.9174 9.04326C13.4321 9.03377 13.9436 9.12695 14.4219 9.31736C14.9003 9.50776 15.3358 9.79157 15.7032 10.1522C16.0707 10.5128 16.3625 10.9431 16.5618 11.4178C16.761 11.8925 16.8637 12.4021 16.8638 12.917C16.8639 13.4318 16.7614 13.9415 16.5623 14.4162C16.3632 14.891 16.0715 15.3213 15.7042 15.6821C15.3369 16.0428 14.9014 16.3268 14.4231 16.5174C13.9449 16.7079 13.4334 16.8013 12.9187 16.792C11.891 16.792 10.9054 16.3837 10.1787 15.657C9.45196 14.9303 9.0437 13.9447 9.0437 12.917C9.0437 11.8893 9.45196 10.9036 10.1787 10.1769C10.9054 9.45022 11.891 9.04196 12.9187 9.04196L12.9174 9.04326ZM19.6987 4.52242C19.282 4.5391 18.8879 4.71637 18.5989 5.01709C18.31 5.31782 18.1486 5.71868 18.1486 6.13571C18.1486 6.55275 18.31 6.95361 18.5989 7.25433C18.8879 7.55506 19.282 7.73233 19.6987 7.74901C20.1269 7.74901 20.5376 7.5789 20.8403 7.27611C21.1431 6.97331 21.3132 6.56264 21.3132 6.13442C21.3132 5.70621 21.1431 5.29553 20.8403 4.99274C20.5376 4.68995 20.1269 4.51984 19.6987 4.51984V4.52242Z" fill="white"/>
</svg>
