<svg width="20" height="20" viewBox="0 0 20 20" fill="none" xmlns="http://www.w3.org/2000/svg">
<path d="M10.0006 3.12462C6.20365 3.126 3.12698 6.20681 3.12973 10.0024C3.12973 11.297 3.49469 12.5626 4.18329 13.6575L3.52224 16.478L6.34275 15.8169C9.55577 17.84 13.8003 16.876 15.8234 13.663C17.8465 10.45 16.8825 6.20543 13.6695 4.18232C12.5718 3.48958 11.2993 3.12325 10.0006 3.12462ZM6.07419 16.5964L4.938 16.8609L5.11841 17.6335L5.95438 17.4393C6.58789 17.785 7.2641 18.0466 7.96509 18.2188L8.15515 17.4489C7.42523 17.2671 6.72561 16.9779 6.0797 16.5909L6.07419 16.5964ZM2.37227 14.8777L3.14488 15.0567L3.4093 13.9205C3.02369 13.2732 2.73585 12.5709 2.55682 11.8396L1.78696 12.0296C1.95911 12.7306 2.22216 13.4068 2.56646 14.0403L2.37227 14.8777ZM4.23425 17.0206L2.59675 17.4035L2.97824 15.766L2.20563 15.5856L1.82414 17.2231C1.72361 17.65 1.98941 18.0769 2.41496 18.1761C2.5334 18.2036 2.65735 18.2036 2.77717 18.1761L4.41329 17.8001L4.23425 17.0206ZM8.85201 2.41674C9.61361 2.30243 10.3876 2.30243 11.1492 2.41674L11.2676 1.63311C10.4275 1.50641 9.57229 1.50641 8.7322 1.63311L8.85201 2.41674ZM17.2461 5.62563L16.5671 6.03328C16.9651 6.69296 17.2612 7.40911 17.4458 8.15693L18.2156 7.96687C18.0118 7.14193 17.6854 6.35279 17.2461 5.62563ZM3.82798 5.4521C4.28521 4.83236 4.83333 4.28423 5.45308 3.827L4.97656 3.18798C4.29485 3.69066 3.69163 4.29387 3.18895 4.97559L3.82798 5.4521ZM14.5481 3.827C15.1679 4.28423 15.716 4.83236 16.1732 5.4521L16.8123 4.97559C16.3096 4.29387 15.7064 3.69066 15.0246 3.18798L14.5481 3.827ZM16.1732 14.5485C15.716 15.1683 15.1679 15.715 14.5481 16.1723L15.0191 16.8113C15.7022 16.3086 16.3068 15.7054 16.8123 15.0237L16.1732 14.5485ZM11.1492 17.5825C10.3876 17.6968 9.61361 17.6968 8.85201 17.5825L8.73357 18.3675C9.57367 18.4942 10.4289 18.4942 11.269 18.3675L11.1492 17.5825ZM18.2142 12.031L17.4444 11.8409C17.2598 12.5901 16.9637 13.3063 16.5657 13.9673L17.2447 14.3764C17.6854 13.6478 18.0118 12.8559 18.2142 12.031ZM17.6689 9.99963C17.6689 10.3839 17.6399 10.7681 17.5821 11.1482L18.3657 11.268C18.4924 10.4279 18.4924 9.57269 18.3657 8.7326L17.5821 8.85104C17.6399 9.23114 17.6689 9.61539 17.6689 9.99963ZM14.3746 17.2451L13.9669 16.5661C13.3073 16.9641 12.5911 17.2602 11.8433 17.4448L12.0334 18.2146C12.8583 18.0108 13.6474 17.6844 14.3746 17.2451ZM2.33233 9.99963C2.33233 9.61539 2.36125 9.23114 2.41772 8.85104L1.63409 8.7326C1.50739 9.57269 1.50739 10.4279 1.63409 11.268L2.41772 11.1482C2.36125 10.7681 2.33233 10.3839 2.33233 9.99963ZM2.75513 5.62563C2.31581 6.35417 1.98941 7.1433 1.78558 7.96825L2.55544 8.1583C2.73998 7.4091 3.03608 6.69296 3.43409 6.0319L2.75513 5.62563ZM12.0306 1.78461L11.8405 2.55446C12.5897 2.73901 13.3059 3.03511 13.9669 3.43312L14.376 2.75416C13.6488 2.31483 12.8569 1.98843 12.0306 1.78461ZM7.96923 1.78461L8.15928 2.55446C7.41008 2.73901 6.69394 3.03511 6.03288 3.43312L5.62523 2.75416C6.35514 2.31483 7.14428 1.98843 7.96923 1.78461Z" fill="white"/>
</svg>
