<svg width="50" height="50" viewBox="0 0 50 50" fill="none" xmlns="http://www.w3.org/2000/svg">
<path d="M14.5 20.9116L11 17.4116" stroke="#062150"/>
<path d="M20.5 20.9116L17 17.4116" stroke="#062150"/>
<path d="M26.5 20.9116L23 17.4116" stroke="#062150"/>
<path d="M32.5 20.9116L29 17.4116" stroke="#062150"/>
<path d="M38.5 20.9116L35 17.4116" stroke="#062150"/>
<path d="M11.2441 21.1172L14.9995 17.4116" stroke="#062150"/>
<path d="M17 20.9116L21 17.4116" stroke="#062150"/>
<path d="M23 20.9116L27 17.4116" stroke="#062150"/>
<path d="M29 20.9116L33 17.4116" stroke="#062150"/>
<path d="M35 20.9116L39 17.4116" stroke="#062150"/>
<path d="M10.002 13.4116H40.0049C40.8331 13.4119 41.5049 14.0834 41.5049 14.9116V17.4116H8.50195V14.9116C8.50195 14.0832 9.17353 13.4116 10.002 13.4116Z" stroke="#062150"/>
<path d="M12 20.9116H38C39.1046 20.9116 40 21.8071 40 22.9116V40.1616H28.75V25.1616H21V40.1616H10V22.9116C10 21.8071 10.8954 20.9116 12 20.9116Z" stroke="#062150"/>
<path d="M7.01953 40.5053H42.9629C44.1724 40.5053 45.1815 41.3642 45.4131 42.5053H4.56934C4.80096 41.3642 5.81004 40.5053 7.01953 40.5053Z" stroke="#062150"/>
<path d="M12.25 6.48462L12.6239 8.36074L14.5 8.73462L12.6239 9.1085L12.25 10.9846L11.8761 9.1085L10 8.73462L11.8761 8.36074L12.25 6.48462Z" fill="#FF6000"/>
<path d="M5.2832 2.73462L5.78171 5.23611L8.2832 5.73462L5.78171 6.23313L5.2832 8.73462L4.78469 6.23313L2.2832 5.73462L4.78469 5.23611L5.2832 2.73462Z" fill="#FF6000"/>
</svg>
